Hacktype-Regular-2.ufo
<glyph name="exclam" format="2">
	<advance width="436"/>
	<unicode hex="0021"/>
	<outline>
		<contour>
			<point x="50" y="119" type="curve" smooth="yes"/>
			<point x="50" y="51" type="line" smooth="yes"/>
			<point x="50" y="22"/>
			<point x="72" y="0"/>
			<point x="101" y="0" type="curve" smooth="yes"/>
			<point x="335" y="0" type="line" smooth="yes"/>
			<point x="364" y="0"/>
			<point x="386" y="22"/>
			<point x="386" y="51" type="curve" smooth="yes"/>
			<point x="386" y="119" type="line" smooth="yes"/>
			<point x="386" y="148"/>
			<point x="364" y="170"/>
			<point x="335" y="170" type="curve" smooth="yes"/>
			<point x="101" y="170" type="line" smooth="yes"/>
			<point x="72" y="170"/>
			<point x="50" y="148"/>
		</contour>
		<contour>
			<point x="50" y="629" type="curve" smooth="yes"/>
			<point x="50" y="283" type="line" smooth="yes"/>
			<point x="50" y="242"/>
			<point x="81" y="211"/>
			<point x="122" y="211" type="curve" smooth="yes"/>
			<point x="314" y="211" type="line" smooth="yes"/>
			<point x="355" y="211"/>
			<point x="386" y="242"/>
			<point x="386" y="283" type="curve" smooth="yes"/>
			<point x="386" y="629" type="line" smooth="yes"/>
			<point x="386" y="669"/>
			<point x="355" y="700"/>
			<point x="314" y="700" type="curve" smooth="yes"/>
			<point x="122" y="700" type="line" smooth="yes"/>
			<point x="81" y="700"/>
			<point x="50" y="669"/>
		</contour>
	</outline>
</glyph>
<glyph name="zero" format="2">
	<advance width="852"/>
	<unicode hex="0030"/>
	<outline>
		<contour>
			<point x="50" y="585" type="curve" smooth="yes"/>
			<point x="50" y="115" type="line" smooth="yes"/>
			<point x="50" y="49"/>
			<point x="99" y="0"/>
			<point x="165" y="0" type="curve" smooth="yes"/>
			<point x="687" y="0" type="line" smooth="yes"/>
			<point x="753" y="0"/>
			<point x="802" y="49"/>
			<point x="802" y="115" type="curve" smooth="yes"/>
			<point x="802" y="585" type="line" smooth="yes"/>
			<point x="802" y="651"/>
			<point x="753" y="700"/>
			<point x="687" y="700" type="curve" smooth="yes"/>
			<point x="165" y="700" type="line" smooth="yes"/>
			<point x="99" y="700"/>
			<point x="50" y="651"/>
		</contour>
		<contour>
			<point x="464" y="357" type="curve" smooth="yes"/>
			<point x="464" y="343" type="line" smooth="yes"/>
			<point x="464" y="335"/>
			<point x="458" y="329"/>
			<point x="450" y="329" type="curve" smooth="yes"/>
			<point x="392" y="329" type="line" smooth="yes"/>
			<point x="384" y="329"/>
			<point x="378" y="335"/>
			<point x="378" y="343" type="curve" smooth="yes"/>
			<point x="378" y="357" type="line" smooth="yes"/>
			<point x="378" y="366"/>
			<point x="384" y="371"/>
			<point x="392" y="371" type="curve" smooth="yes"/>
			<point x="450" y="371" type="line" smooth="yes"/>
			<point x="458" y="371"/>
			<point x="464" y="366"/>
		</contour>
	</outline>
</glyph>
<glyph name="one" format="2">
	<advance width="852"/>
	<unicode hex="0031"/>
	<outline>
		<contour>
			<point x="802" y="71" type="line" smooth="yes"/>
			<point x="802" y="31"/>
			<point x="771" y="0"/>
			<point x="730" y="0" type="curve" smooth="yes"/>
			<point x="345" y="0" type="line" smooth="yes"/>
			<point x="305" y="0"/>
			<point x="274" y="31"/>
			<point x="274" y="71" type="curve" smooth="yes"/>
			<point x="274" y="94" type="line" smooth="yes"/>
			<point x="274" y="102"/>
			<point x="268" y="108"/>
			<point x="260" y="108" type="curve" smooth="yes"/>
			<point x="246" y="108" type="line" smooth="yes"/>
			<point x="238" y="108"/>
			<point x="232" y="102"/>
			<point x="232" y="94" type="curve" smooth="yes"/>
			<point x="232" y="71" type="line" smooth="yes"/>
			<point x="232" y="30"/>
			<point x="201" y="0"/>
			<point x="161" y="0" type="curve" smooth="yes"/>
			<point x="121" y="0" type="line" smooth="yes"/>
			<point x="81" y="0"/>
			<point x="50" y="30"/>
			<point x="50" y="71" type="curve" smooth="yes"/>
			<point x="50" y="629" type="line" smooth="yes"/>
			<point x="50" y="669"/>
			<point x="81" y="700"/>
			<point x="121" y="700" type="curve" smooth="yes"/>
			<point x="730" y="700" type="line" smooth="yes"/>
			<point x="771" y="700"/>
			<point x="802" y="669"/>
			<point x="802" y="629" type="curve" smooth="yes"/>
		</contour>
	</outline>
</glyph>
<glyph name="two" format="2">
	<advance width="850"/>
	<unicode hex="0032"/>
	<outline>
		<contour>
			<point x="50" y="437" type="curve" smooth="yes"/>
			<point x="50" y="583" type="line" smooth="yes"/>
			<point x="50" y="651"/>
			<point x="99" y="700"/>
			<point x="167" y="700" type="curve" smooth="yes"/>
			<point x="683" y="700" type="line" smooth="yes"/>
			<point x="751" y="700"/>
			<point x="800" y="651"/>
			<point x="800" y="583" type="curve" smooth="yes"/>
			<point x="800" y="341" type="line" smooth="yes"/>
			<point x="800" y="273"/>
			<point x="751" y="224"/>
			<point x="683" y="224" type="curve" smooth="yes"/>
			<point x="675" y="224" type="line" smooth="yes"/>
			<point x="667" y="224"/>
			<point x="660" y="217"/>
			<point x="660" y="209" type="curve" smooth="yes"/>
			<point x="660" y="197" type="line" smooth="yes"/>
			<point x="660" y="189"/>
			<point x="667" y="182"/>
			<point x="675" y="182" type="curve" smooth="yes"/>
			<point x="729" y="182" type="line" smooth="yes"/>
			<point x="770" y="182"/>
			<point x="800" y="152"/>
			<point x="800" y="111" type="curve" smooth="yes"/>
			<point x="800" y="71" type="line" smooth="yes"/>
			<point x="800" y="30"/>
			<point x="770" y="0"/>
			<point x="729" y="0" type="curve" smooth="yes"/>
			<point x="121" y="0" type="line" smooth="yes"/>
			<point x="80" y="0"/>
			<point x="50" y="30"/>
			<point x="50" y="71" type="curve" smooth="yes"/>
			<point x="50" y="253" type="line" smooth="yes"/>
			<point x="50" y="294"/>
			<point x="80" y="324"/>
			<point x="121" y="324" type="curve" smooth="yes"/>
			<point x="137" y="324" type="line" smooth="yes"/>
			<point x="145" y="324"/>
			<point x="148" y="324"/>
			<point x="152" y="324" type="curve"/>
			<point x="164" y="324" type="line" smooth="yes"/>
			<point x="173" y="324"/>
			<point x="179" y="329"/>
			<point x="179" y="339" type="curve" smooth="yes"/>
			<point x="179" y="351" type="line" smooth="yes"/>
			<point x="179" y="361"/>
			<point x="173" y="366"/>
			<point x="164" y="366" type="curve" smooth="yes"/>
			<point x="140" y="366" type="line"/>
			<point x="137" y="366"/>
			<point x="133" y="366"/>
			<point x="125" y="366" type="curve" smooth="yes"/>
			<point x="121" y="366" type="line" smooth="yes"/>
			<point x="80" y="366"/>
			<point x="50" y="396"/>
		</contour>
	</outline>
</glyph>
<glyph name="three" format="2">
	<advance width="852"/>
	<unicode hex="0033"/>
	<outline>
		<contour>
			<point x="802" y="629" type="line" smooth="yes"/>
			<point x="802" y="669"/>
			<point x="771" y="700"/>
			<point x="731" y="700" type="curve" smooth="yes"/>
			<point x="122" y="700" type="line" smooth="yes"/>
			<point x="81" y="700"/>
			<point x="50" y="669"/>
			<point x="50" y="629" type="curve" smooth="yes"/>
			<point x="50" y="566" type="line" smooth="yes"/>
			<point x="50" y="526"/>
			<point x="81" y="495"/>
			<point x="122" y="495" type="curve" smooth="yes"/>
			<point x="133" y="495" type="line" smooth="yes"/>
			<point x="142" y="495"/>
			<point x="147" y="489"/>
			<point x="147" y="481" type="curve" smooth="yes"/>
			<point x="147" y="467" type="line" smooth="yes"/>
			<point x="147" y="459"/>
			<point x="142" y="453"/>
			<point x="133" y="453" type="curve" smooth="yes"/>
			<point x="122" y="453" type="line" smooth="yes"/>
			<point x="81" y="453"/>
			<point x="50" y="422"/>
			<point x="50" y="382" type="curve" smooth="yes"/>
			<point x="50" y="318" type="line" smooth="yes"/>
			<point x="50" y="278"/>
			<point x="81" y="247"/>
			<point x="122" y="247" type="curve" smooth="yes"/>
			<point x="133" y="247" type="line" smooth="yes"/>
			<point x="142" y="247"/>
			<point x="147" y="241"/>
			<point x="147" y="233" type="curve" smooth="yes"/>
			<point x="147" y="219" type="line" smooth="yes"/>
			<point x="147" y="211"/>
			<point x="142" y="205"/>
			<point x="133" y="205" type="curve" smooth="yes"/>
			<point x="122" y="205" type="line" smooth="yes"/>
			<point x="81" y="205"/>
			<point x="50" y="174"/>
			<point x="50" y="134" type="curve" smooth="yes"/>
			<point x="50" y="71" type="line" smooth="yes"/>
			<point x="50" y="31"/>
			<point x="81" y="0"/>
			<point x="122" y="0" type="curve" smooth="yes"/>
			<point x="731" y="0" type="line" smooth="yes"/>
			<point x="771" y="0"/>
			<point x="802" y="31"/>
			<point x="802" y="71" type="curve" smooth="yes"/>
		</contour>
	</outline>
</glyph>
<glyph name="four" format="2">
	<advance width="850"/>
	<unicode hex="0034"/>
	<outline>
		<contour>
			<point x="121" y="700" type="curve" smooth="yes"/>
			<point x="702" y="700" type="line" smooth="yes"/>
			<point x="743" y="700"/>
			<point x="773" y="670"/>
			<point x="773" y="629" type="curve" smooth="yes"/>
			<point x="773" y="284" type="line" smooth="yes"/>
			<point x="773" y="276"/>
			<point x="780" y="269"/>
			<point x="788" y="269" type="curve" smooth="yes"/>
			<point x="789" y="269" type="line" smooth="yes"/>
			<point x="802" y="269"/>
			<point x="800" y="239"/>
			<point x="800" y="198" type="curve" smooth="yes"/>
			<point x="800" y="158" type="line" smooth="yes"/>
			<point x="800" y="117"/>
			<point x="807" y="51"/>
			<point x="766" y="51" type="curve" smooth="yes"/>
			<point x="765" y="51" type="line" smooth="yes"/>
			<point x="757" y="51"/>
			<point x="750" y="44"/>
			<point x="750" y="36" type="curve" smooth="yes"/>
			<point x="750" y="35" type="line" smooth="yes"/>
			<point x="750" y="-6"/>
			<point x="683" y="0"/>
			<point x="642" y="0" type="curve" smooth="yes"/>
			<point x="602" y="0" type="line" smooth="yes"/>
			<point x="561" y="0"/>
			<point x="531" y="-1"/>
			<point x="531" y="11" type="curve" smooth="yes"/>
			<point x="531" y="12" type="line" smooth="yes"/>
			<point x="531" y="20"/>
			<point x="524" y="27"/>
			<point x="516" y="27" type="curve" smooth="yes"/>
			<point x="121" y="27" type="line" smooth="yes"/>
			<point x="80" y="27"/>
			<point x="50" y="57"/>
			<point x="50" y="98" type="curve" smooth="yes"/>
			<point x="50" y="629" type="line" smooth="yes"/>
			<point x="50" y="670"/>
			<point x="80" y="700"/>
		</contour>
		<contour>
			<point x="388" y="428" type="curve" smooth="yes"/>
			<point x="376" y="428" type="line" smooth="yes"/>
			<point x="368" y="428"/>
			<point x="361" y="421"/>
			<point x="361" y="413" type="curve" smooth="yes"/>
			<point x="361" y="374" type="line" smooth="yes"/>
			<point x="361" y="366"/>
			<point x="368" y="359"/>
			<point x="376" y="359" type="curve" smooth="yes"/>
			<point x="388" y="359" type="line" smooth="yes"/>
			<point x="396" y="359"/>
			<point x="403" y="366"/>
			<point x="403" y="374" type="curve" smooth="yes"/>
			<point x="403" y="413" type="line" smooth="yes"/>
			<point x="403" y="421"/>
			<point x="396" y="428"/>
		</contour>
	</outline>
</glyph>
<glyph name="six" format="2">
	<advance width="846"/>
	<unicode hex="0036"/>
	<outline>
		<contour>
			<point x="725" y="700" type="curve" smooth="yes"/>
			<point x="167" y="700" type="line" smooth="yes"/>
			<point x="99" y="700"/>
			<point x="50" y="651"/>
			<point x="50" y="583" type="curve" smooth="yes"/>
			<point x="50" y="117" type="line" smooth="yes"/>
			<point x="50" y="49"/>
			<point x="99" y="0"/>
			<point x="167" y="0" type="curve" smooth="yes"/>
			<point x="679" y="0" type="line" smooth="yes"/>
			<point x="747" y="0"/>
			<point x="796" y="49"/>
			<point x="796" y="117" type="curve" smooth="yes"/>
			<point x="796" y="359" type="line" smooth="yes"/>
			<point x="796" y="427"/>
			<point x="747" y="476"/>
			<point x="679" y="476" type="curve" smooth="yes"/>
			<point x="672" y="476" type="line" smooth="yes"/>
			<point x="664" y="476"/>
			<point x="657" y="483"/>
			<point x="657" y="491" type="curve" smooth="yes"/>
			<point x="657" y="503" type="line" smooth="yes"/>
			<point x="657" y="511"/>
			<point x="664" y="518"/>
			<point x="672" y="518" type="curve" smooth="yes"/>
			<point x="725" y="518" type="line" smooth="yes"/>
			<point x="766" y="518"/>
			<point x="796" y="548"/>
			<point x="796" y="589" type="curve" smooth="yes"/>
			<point x="796" y="629" type="line" smooth="yes"/>
			<point x="796" y="670"/>
			<point x="766" y="700"/>
		</contour>
		<contour>
			<point x="381" y="267" type="curve" smooth="yes"/>
			<point x="381" y="279" type="line" smooth="yes"/>
			<point x="381" y="287"/>
			<point x="388" y="294"/>
			<point x="396" y="294" type="curve" smooth="yes"/>
			<point x="450" y="294" type="line" smooth="yes"/>
			<point x="458" y="294"/>
			<point x="465" y="287"/>
			<point x="465" y="279" type="curve" smooth="yes"/>
			<point x="465" y="267" type="line" smooth="yes"/>
			<point x="465" y="259"/>
			<point x="458" y="252"/>
			<point x="450" y="252" type="curve" smooth="yes"/>
			<point x="396" y="252" type="line" smooth="yes"/>
			<point x="388" y="252"/>
			<point x="381" y="259"/>
		</contour>
	</outline>
</glyph>
<glyph name="seven" format="2">
	<advance width="852"/>
	<unicode hex="0037"/>
	<outline>
		<contour>
			<point x="802" y="71" type="curve" smooth="yes"/>
			<point x="802" y="629" type="line" smooth="yes"/>
			<point x="802" y="669"/>
			<point x="771" y="700"/>
			<point x="731" y="700" type="curve" smooth="yes"/>
			<point x="122" y="700" type="line" smooth="yes"/>
			<point x="81" y="700"/>
			<point x="50" y="669"/>
			<point x="50" y="629" type="curve" smooth="yes"/>
			<point x="50" y="529" type="line" smooth="yes"/>
			<point x="50" y="489"/>
			<point x="81" y="458"/>
			<point x="122" y="458" type="curve" smooth="yes"/>
			<point x="136" y="458" type="line" smooth="yes"/>
			<point x="144" y="458"/>
			<point x="150" y="452"/>
			<point x="150" y="444" type="curve" smooth="yes"/>
			<point x="150" y="71" type="line" smooth="yes"/>
			<point x="150" y="31"/>
			<point x="181" y="0"/>
			<point x="221" y="0" type="curve" smooth="yes"/>
			<point x="731" y="0" type="line" smooth="yes"/>
			<point x="771" y="0"/>
			<point x="802" y="31"/>
		</contour>
	</outline>
</glyph>
<glyph name="eight" format="2">
	<advance width="852"/>
	<unicode hex="0038"/>
	<outline>
		<contour>
			<point x="167" y="700" type="curve" smooth="yes"/>
			<point x="687" y="700" type="line" smooth="yes"/>
			<point x="753" y="700"/>
			<point x="802" y="651"/>
			<point x="802" y="585" type="curve" smooth="yes"/>
			<point x="802" y="442" type="line" smooth="yes"/>
			<point x="802" y="402"/>
			<point x="771" y="371"/>
			<point x="730" y="371" type="curve" smooth="yes"/>
			<point x="724" y="371" type="line" smooth="yes"/>
			<point x="716" y="371"/>
			<point x="710" y="365"/>
			<point x="710" y="357" type="curve" smooth="yes"/>
			<point x="710" y="343" type="line" smooth="yes"/>
			<point x="710" y="335"/>
			<point x="716" y="329"/>
			<point x="724" y="329" type="curve" smooth="yes"/>
			<point x="729" y="329" type="line" smooth="yes"/>
			<point x="770" y="329"/>
			<point x="802" y="298"/>
			<point x="802" y="258" type="curve" smooth="yes"/>
			<point x="802" y="115" type="line" smooth="yes"/>
			<point x="802" y="49"/>
			<point x="751" y="0"/>
			<point x="686" y="0" type="curve" smooth="yes"/>
			<point x="167" y="0" type="line" smooth="yes"/>
			<point x="99" y="0"/>
			<point x="50" y="49"/>
			<point x="50" y="117" type="curve" smooth="yes"/>
			<point x="50" y="257" type="line" smooth="yes"/>
			<point x="50" y="298"/>
			<point x="79" y="321"/>
			<point x="121" y="328" type="curve" smooth="yes"/>
			<point x="127" y="329" type="line" smooth="yes"/>
			<point x="135" y="330"/>
			<point x="142" y="336"/>
			<point x="142" y="344" type="curve" smooth="yes"/>
			<point x="142" y="356" type="line" smooth="yes"/>
			<point x="142" y="364"/>
			<point x="135" y="371"/>
			<point x="127" y="371" type="curve" smooth="yes"/>
			<point x="121" y="371" type="line" smooth="yes"/>
			<point x="80" y="371"/>
			<point x="50" y="401"/>
			<point x="50" y="442" type="curve" smooth="yes"/>
			<point x="50" y="583" type="line" smooth="yes"/>
			<point x="50" y="651"/>
			<point x="99" y="700"/>
		</contour>
		<contour>
			<point x="446" y="256" type="curve" smooth="yes"/>
			<point x="446" y="265" type="line" smooth="yes"/>
			<point x="446" y="274"/>
			<point x="440" y="279"/>
			<point x="432" y="279" type="curve" smooth="yes"/>
			<point x="418" y="279" type="line" smooth="yes"/>
			<point x="410" y="279"/>
			<point x="404" y="274"/>
			<point x="404" y="265" type="curve" smooth="yes"/>
			<point x="404" y="256" type="line" smooth="yes"/>
			<point x="404" y="247"/>
			<point x="410" y="242"/>
			<point x="418" y="242" type="curve" smooth="yes"/>
			<point x="432" y="242" type="line" smooth="yes"/>
			<point x="440" y="242"/>
			<point x="446" y="247"/>
		</contour>
		<contour>
			<point x="446" y="435" type="curve" smooth="yes"/>
			<point x="446" y="444" type="line" smooth="yes"/>
			<point x="446" y="453"/>
			<point x="440" y="458"/>
			<point x="432" y="458" type="curve" smooth="yes"/>
			<point x="418" y="458" type="line" smooth="yes"/>
			<point x="410" y="458"/>
			<point x="404" y="453"/>
			<point x="404" y="444" type="curve" smooth="yes"/>
			<point x="404" y="435" type="line" smooth="yes"/>
			<point x="404" y="426"/>
			<point x="410" y="421"/>
			<point x="418" y="421" type="curve" smooth="yes"/>
			<point x="432" y="421" type="line" smooth="yes"/>
			<point x="440" y="421"/>
			<point x="446" y="426"/>
		</contour>
	</outline>
</glyph>
<glyph name="question" format="2">
	<advance width="742"/>
	<unicode hex="003F"/>
	<outline>
		<contour>
			<point x="334" y="117" type="curve" smooth="yes"/>
			<point x="334" y="51" type="line" smooth="yes"/>
			<point x="334" y="22"/>
			<point x="356" y="0"/>
			<point x="385" y="0" type="curve" smooth="yes"/>
			<point x="543" y="0" type="line" smooth="yes"/>
			<point x="572" y="0"/>
			<point x="594" y="22"/>
			<point x="594" y="51" type="curve" smooth="yes"/>
			<point x="594" y="117" type="line" smooth="yes"/>
			<point x="594" y="146"/>
			<point x="572" y="168"/>
			<point x="543" y="168" type="curve" smooth="yes"/>
			<point x="385" y="168" type="line" smooth="yes"/>
			<point x="356" y="168"/>
			<point x="334" y="146"/>
		</contour>
		<contour>
			<point x="594" y="281" type="curve" smooth="yes"/>
			<point x="594" y="345" type="line" smooth="yes"/>
			<point x="594" y="353"/>
			<point x="601" y="360"/>
			<point x="609" y="360" type="curve" smooth="yes"/>
			<point x="677" y="360" type="line" smooth="yes"/>
			<point x="685" y="360"/>
			<point x="692" y="367"/>
			<point x="692" y="375" type="curve" smooth="yes"/>
			<point x="692" y="588" type="line" smooth="yes"/>
			<point x="692" y="653"/>
			<point x="645" y="700"/>
			<point x="580" y="700" type="curve" smooth="yes"/>
			<point x="162" y="700" type="line" smooth="yes"/>
			<point x="97" y="700"/>
			<point x="50" y="653"/>
			<point x="50" y="588" type="curve" smooth="yes"/>
			<point x="50" y="375" type="line" smooth="yes"/>
			<point x="50" y="334"/>
			<point x="81" y="304"/>
			<point x="121" y="304" type="curve" smooth="yes"/>
			<point x="221" y="304" type="line" smooth="yes"/>
			<point x="261" y="304"/>
			<point x="292" y="334"/>
			<point x="292" y="375" type="curve" smooth="yes"/>
			<point x="292" y="504" type="line" smooth="yes"/>
			<point x="292" y="512"/>
			<point x="298" y="518"/>
			<point x="306" y="518" type="curve" smooth="yes"/>
			<point x="320" y="518" type="line" smooth="yes"/>
			<point x="328" y="518"/>
			<point x="334" y="512"/>
			<point x="334" y="504" type="curve" smooth="yes"/>
			<point x="334" y="281" type="line" smooth="yes"/>
			<point x="334" y="241"/>
			<point x="365" y="210"/>
			<point x="405" y="210" type="curve" smooth="yes"/>
			<point x="523" y="210" type="line" smooth="yes"/>
			<point x="564" y="210"/>
			<point x="594" y="240"/>
		</contour>
	</outline>
</glyph>
<glyph name="A" format="2">
	<advance width="852"/>
	<unicode hex="0041"/>
	<outline>
		<contour>
			<point x="50" y="70" type="curve" smooth="yes"/>
			<point x="50" y="629" type="line" smooth="yes"/>
			<point x="50" y="668"/>
			<point x="79" y="700"/>
			<point x="119" y="700" type="curve" smooth="yes"/>
			<point x="730" y="700" type="line" smooth="yes"/>
			<point x="770" y="700"/>
			<point x="802" y="668"/>
			<point x="802" y="629" type="curve" smooth="yes"/>
			<point x="802" y="69" type="line" smooth="yes"/>
			<point x="802" y="29"/>
			<point x="770" y="0"/>
			<point x="730" y="0" type="curve" smooth="yes"/>
			<point x="686" y="0" type="line" smooth="yes"/>
			<point x="646" y="0"/>
			<point x="616" y="-6"/>
			<point x="616" y="33" type="curve" smooth="yes"/>
			<point x="616" y="36" type="line" smooth="yes"/>
			<point x="616" y="44"/>
			<point x="610" y="50"/>
			<point x="602" y="50" type="curve" smooth="yes"/>
			<point x="250" y="50" type="line" smooth="yes"/>
			<point x="242" y="50"/>
			<point x="236" y="44"/>
			<point x="236" y="36" type="curve" smooth="yes"/>
			<point x="236" y="33" type="line" smooth="yes"/>
			<point x="236" y="-6"/>
			<point x="205" y="0"/>
			<point x="166" y="0" type="curve" smooth="yes"/>
			<point x="119" y="0" type="line" smooth="yes"/>
			<point x="79" y="0"/>
			<point x="50" y="31"/>
		</contour>
		<contour>
			<point x="366" y="269" type="curve" smooth="yes"/>
			<point x="466" y="269" type="line" smooth="yes"/>
			<point x="474" y="269"/>
			<point x="480" y="274"/>
			<point x="480" y="283" type="curve" smooth="yes"/>
			<point x="480" y="297" type="line" smooth="yes"/>
			<point x="480" y="305"/>
			<point x="474" y="311"/>
			<point x="466" y="311" type="curve" smooth="yes"/>
			<point x="366" y="311" type="line" smooth="yes"/>
			<point x="358" y="311"/>
			<point x="352" y="305"/>
			<point x="352" y="297" type="curve" smooth="yes"/>
			<point x="352" y="283" type="line" smooth="yes"/>
			<point x="352" y="274"/>
			<point x="358" y="269"/>
		</contour>
	</outline>
</glyph>
<glyph name="B" format="2">
	<advance width="852"/>
	<unicode hex="0042"/>
	<outline>
		<contour>
			<point x="121" y="700" type="curve" smooth="yes"/>
			<point x="687" y="700" type="line" smooth="yes"/>
			<point x="753" y="700"/>
			<point x="802" y="651"/>
			<point x="802" y="585" type="curve" smooth="yes"/>
			<point x="802" y="442" type="line" smooth="yes"/>
			<point x="802" y="402"/>
			<point x="804" y="371"/>
			<point x="775" y="371" type="curve" smooth="yes"/>
			<point x="764" y="371" type="line" smooth="yes"/>
			<point x="756" y="371"/>
			<point x="750" y="365"/>
			<point x="750" y="357" type="curve" smooth="yes"/>
			<point x="750" y="343" type="line" smooth="yes"/>
			<point x="750" y="335"/>
			<point x="756" y="329"/>
			<point x="764" y="329" type="curve" smooth="yes"/>
			<point x="775" y="329" type="line" smooth="yes"/>
			<point x="800" y="329"/>
			<point x="800" y="298"/>
			<point x="800" y="258" type="curve" smooth="yes"/>
			<point x="800" y="115" type="line" smooth="yes"/>
			<point x="800" y="49"/>
			<point x="751" y="0"/>
			<point x="686" y="0" type="curve" smooth="yes"/>
			<point x="121" y="0" type="line" smooth="yes"/>
			<point x="81" y="0"/>
			<point x="50" y="31"/>
			<point x="50" y="71" type="curve" smooth="yes"/>
			<point x="50" y="629" type="line" smooth="yes"/>
			<point x="50" y="669"/>
			<point x="81" y="700"/>
		</contour>
		<contour>
			<point x="444" y="329" type="curve" smooth="yes"/>
			<point x="405" y="329" type="line" smooth="yes"/>
			<point x="396" y="329"/>
			<point x="391" y="323"/>
			<point x="391" y="315" type="curve" smooth="yes"/>
			<point x="391" y="301" type="line" smooth="yes"/>
			<point x="391" y="293"/>
			<point x="396" y="287"/>
			<point x="405" y="287" type="curve" smooth="yes"/>
			<point x="444" y="287" type="line" smooth="yes"/>
			<point x="453" y="287"/>
			<point x="458" y="293"/>
			<point x="458" y="301" type="curve" smooth="yes"/>
			<point x="458" y="315" type="line" smooth="yes"/>
			<point x="458" y="323"/>
			<point x="453" y="329"/>
		</contour>
		<contour>
			<point x="444" y="413" type="curve" smooth="yes"/>
			<point x="405" y="413" type="line" smooth="yes"/>
			<point x="396" y="413"/>
			<point x="391" y="407"/>
			<point x="391" y="399" type="curve" smooth="yes"/>
			<point x="391" y="385" type="line" smooth="yes"/>
			<point x="391" y="377"/>
			<point x="396" y="371"/>
			<point x="405" y="371" type="curve" smooth="yes"/>
			<point x="444" y="371" type="line" smooth="yes"/>
			<point x="453" y="371"/>
			<point x="458" y="377"/>
			<point x="458" y="385" type="curve" smooth="yes"/>
			<point x="458" y="399" type="line" smooth="yes"/>
			<point x="458" y="407"/>
			<point x="453" y="413"/>
		</contour>
	</outline>
</glyph>
<glyph name="F" format="2">
	<advance width="852"/>
	<unicode hex="0046"/>
	<outline>
		<contour>
			<point x="50" y="629" type="curve" smooth="yes"/>
			<point x="50" y="71" type="line" smooth="yes"/>
			<point x="50" y="31"/>
			<point x="81" y="0"/>
			<point x="121" y="0" type="curve" smooth="yes"/>
			<point x="161" y="0" type="line" smooth="yes"/>
			<point x="201" y="0"/>
			<point x="232" y="-2"/>
			<point x="232" y="11" type="curve" smooth="yes"/>
			<point x="232" y="13" type="line" smooth="yes"/>
			<point x="232" y="21"/>
			<point x="238" y="27"/>
			<point x="246" y="27" type="curve" smooth="yes"/>
			<point x="730" y="27" type="line" smooth="yes"/>
			<point x="771" y="27"/>
			<point x="802" y="58"/>
			<point x="802" y="98" type="curve" smooth="yes"/>
			<point x="802" y="301" type="line" smooth="yes"/>
			<point x="802" y="342"/>
			<point x="771" y="372"/>
			<point x="730" y="372" type="curve" smooth="yes"/>
			<point x="716" y="372" type="line" smooth="yes"/>
			<point x="708" y="372"/>
			<point x="702" y="378"/>
			<point x="702" y="386" type="curve" smooth="yes"/>
			<point x="702" y="400" type="line" smooth="yes"/>
			<point x="702" y="409"/>
			<point x="708" y="414"/>
			<point x="716" y="414" type="curve" smooth="yes"/>
			<point x="730" y="414" type="line" smooth="yes"/>
			<point x="771" y="414"/>
			<point x="802" y="445"/>
			<point x="802" y="486" type="curve" smooth="yes"/>
			<point x="802" y="629" type="line" smooth="yes"/>
			<point x="802" y="669"/>
			<point x="771" y="700"/>
			<point x="730" y="700" type="curve" smooth="yes"/>
			<point x="121" y="700" type="line" smooth="yes"/>
			<point x="81" y="700"/>
			<point x="50" y="669"/>
		</contour>
	</outline>
</glyph>
<glyph name="G" format="2">
	<advance width="852"/>
	<unicode hex="0047"/>
	<outline>
		<contour>
			<point x="50" y="585" type="curve" smooth="yes"/>
			<point x="50" y="115" type="line" smooth="yes"/>
			<point x="50" y="49"/>
			<point x="99" y="0"/>
			<point x="165" y="0" type="curve" smooth="yes"/>
			<point x="687" y="0" type="line" smooth="yes"/>
			<point x="753" y="0"/>
			<point x="802" y="49"/>
			<point x="802" y="115" type="curve" smooth="yes"/>
			<point x="802" y="237" type="line" smooth="yes"/>
			<point x="802" y="277"/>
			<point x="771" y="308"/>
			<point x="730" y="308" type="curve" smooth="yes"/>
			<point x="578" y="308" type="line" smooth="yes"/>
			<point x="570" y="308"/>
			<point x="569" y="308"/>
			<point x="564" y="308" type="curve"/>
			<point x="563" y="308" type="line" smooth="yes"/>
			<point x="556" y="308"/>
			<point x="565" y="308"/>
			<point x="562" y="308" type="curve"/>
			<point x="561" y="308" type="line"/>
			<point x="560" y="308"/>
			<point x="562" y="308"/>
			<point x="559" y="308" type="curve"/>
			<point x="558" y="308" type="line"/>
			<point x="555" y="308"/>
			<point x="558" y="308"/>
			<point x="550" y="308" type="curve" smooth="yes"/>
			<point x="536" y="308" type="line" smooth="yes"/>
			<point x="528" y="308"/>
			<point x="522" y="313"/>
			<point x="522" y="321" type="curve" smooth="yes"/>
			<point x="522" y="336" type="line" smooth="yes"/>
			<point x="522" y="344"/>
			<point x="528" y="350"/>
			<point x="536" y="350" type="curve" smooth="yes"/>
			<point x="730" y="350" type="line" smooth="yes"/>
			<point x="771" y="350"/>
			<point x="802" y="381"/>
			<point x="802" y="421" type="curve" smooth="yes"/>
			<point x="802" y="629" type="line" smooth="yes"/>
			<point x="802" y="669"/>
			<point x="771" y="700"/>
			<point x="730" y="700" type="curve" smooth="yes"/>
			<point x="165" y="700" type="line" smooth="yes"/>
			<point x="99" y="700"/>
			<point x="50" y="651"/>
		</contour>
	</outline>
</glyph>
<glyph name="H" format="2">
	<advance width="852"/>
	<unicode hex="0048"/>
	<outline>
		<contour>
			<point x="50" y="629" type="curve" smooth="yes"/>
			<point x="50" y="71" type="line" smooth="yes"/>
			<point x="50" y="31"/>
			<point x="81" y="0"/>
			<point x="121" y="0" type="curve" smooth="yes"/>
			<point x="334" y="0" type="line" smooth="yes"/>
			<point x="375" y="0"/>
			<point x="406" y="31"/>
			<point x="406" y="71" type="curve" smooth="yes"/>
			<point x="406" y="85" type="line" smooth="yes"/>
			<point x="406" y="93"/>
			<point x="411" y="99"/>
			<point x="420" y="99" type="curve" smooth="yes"/>
			<point x="434" y="99" type="line" smooth="yes"/>
			<point x="442" y="99"/>
			<point x="448" y="93"/>
			<point x="448" y="85" type="curve" smooth="yes"/>
			<point x="448" y="71" type="line" smooth="yes"/>
			<point x="448" y="31"/>
			<point x="478" y="0"/>
			<point x="519" y="0" type="curve" smooth="yes"/>
			<point x="730" y="0" type="line" smooth="yes"/>
			<point x="771" y="0"/>
			<point x="802" y="31"/>
			<point x="802" y="71" type="curve" smooth="yes"/>
			<point x="802" y="629" type="line" smooth="yes"/>
			<point x="802" y="669"/>
			<point x="771" y="700"/>
			<point x="730" y="700" type="curve" smooth="yes"/>
			<point x="519" y="700" type="line" smooth="yes"/>
			<point x="478" y="700"/>
			<point x="448" y="669"/>
			<point x="448" y="629" type="curve" smooth="yes"/>
			<point x="448" y="616" type="line" smooth="yes"/>
			<point x="448" y="608"/>
			<point x="442" y="602"/>
			<point x="434" y="602" type="curve" smooth="yes"/>
			<point x="420" y="602" type="line" smooth="yes"/>
			<point x="411" y="602"/>
			<point x="406" y="608"/>
			<point x="406" y="616" type="curve" smooth="yes"/>
			<point x="406" y="629" type="line" smooth="yes"/>
			<point x="406" y="669"/>
			<point x="375" y="700"/>
			<point x="334" y="700" type="curve" smooth="yes"/>
			<point x="121" y="700" type="line" smooth="yes"/>
			<point x="81" y="700"/>
			<point x="50" y="669"/>
		</contour>
	</outline>
</glyph>
<glyph name="I" format="2">
	<advance width="710"/>
	<unicode hex="0049"/>
	<outline>
		<contour>
			<point x="50" y="629" type="curve" smooth="yes"/>
			<point x="50" y="72" type="line" smooth="yes"/>
			<point x="50" y="31"/>
			<point x="81" y="0"/>
			<point x="122" y="0" type="curve" smooth="yes"/>
			<point x="588" y="0" type="line" smooth="yes"/>
			<point x="629" y="0"/>
			<point x="660" y="31"/>
			<point x="660" y="72" type="curve" smooth="yes"/>
			<point x="660" y="629" type="line" smooth="yes"/>
			<point x="660" y="669"/>
			<point x="629" y="700"/>
			<point x="588" y="700" type="curve" smooth="yes"/>
			<point x="122" y="700" type="line" smooth="yes"/>
			<point x="81" y="700"/>
			<point x="50" y="669"/>
		</contour>
	</outline>
</glyph>
<glyph name="J" format="2">
	<advance width="852"/>
	<unicode hex="004A"/>
	<outline>
		<contour>
			<point x="802" y="629" type="curve" smooth="yes"/>
			<point x="802" y="71" type="line" smooth="yes"/>
			<point x="802" y="31"/>
			<point x="771" y="0"/>
			<point x="730" y="0" type="curve" smooth="yes"/>
			<point x="121" y="0" type="line" smooth="yes"/>
			<point x="81" y="0"/>
			<point x="50" y="31"/>
			<point x="50" y="71" type="curve" smooth="yes"/>
			<point x="50" y="629" type="line" smooth="yes"/>
			<point x="50" y="670"/>
			<point x="81" y="700"/>
			<point x="121" y="700" type="curve" smooth="yes"/>
			<point x="161" y="700" type="line" smooth="yes"/>
			<point x="201" y="700"/>
			<point x="232" y="670"/>
			<point x="232" y="629" type="curve" smooth="yes"/>
			<point x="232" y="616" type="line" smooth="yes"/>
			<point x="232" y="608"/>
			<point x="238" y="602"/>
			<point x="246" y="602" type="curve" smooth="yes"/>
			<point x="260" y="602" type="line" smooth="yes"/>
			<point x="268" y="602"/>
			<point x="274" y="608"/>
			<point x="274" y="616" type="curve" smooth="yes"/>
			<point x="274" y="629" type="line" smooth="yes"/>
			<point x="274" y="669"/>
			<point x="305" y="700"/>
			<point x="345" y="700" type="curve" smooth="yes"/>
			<point x="730" y="700" type="line" smooth="yes"/>
			<point x="771" y="700"/>
			<point x="802" y="669"/>
		</contour>
	</outline>
</glyph>
<glyph name="K" format="2">
	<advance width="852"/>
	<unicode hex="004B"/>
	<outline>
		<contour>
			<point x="50" y="629" type="curve" smooth="yes"/>
			<point x="50" y="71" type="line" smooth="yes"/>
			<point x="50" y="31"/>
			<point x="81" y="0"/>
			<point x="121" y="0" type="curve" smooth="yes"/>
			<point x="161" y="0" type="line" smooth="yes"/>
			<point x="201" y="0"/>
			<point x="232" y="31"/>
			<point x="232" y="71" type="curve" smooth="yes"/>
			<point x="232" y="85" type="line" smooth="yes"/>
			<point x="232" y="93"/>
			<point x="238" y="99"/>
			<point x="246" y="99" type="curve" smooth="yes"/>
			<point x="260" y="99" type="line" smooth="yes"/>
			<point x="268" y="99"/>
			<point x="274" y="93"/>
			<point x="274" y="85" type="curve" smooth="yes"/>
			<point x="274" y="71" type="line" smooth="yes"/>
			<point x="274" y="31"/>
			<point x="305" y="0"/>
			<point x="345" y="0" type="curve" smooth="yes"/>
			<point x="730" y="0" type="line" smooth="yes"/>
			<point x="771" y="0"/>
			<point x="802" y="31"/>
			<point x="802" y="71" type="curve" smooth="yes"/>
			<point x="802" y="258" type="line" smooth="yes"/>
			<point x="802" y="298"/>
			<point x="771" y="329"/>
			<point x="730" y="329" type="curve" smooth="yes"/>
			<point x="720" y="329" type="line" smooth="yes"/>
			<point x="712" y="329"/>
			<point x="706" y="335"/>
			<point x="706" y="343" type="curve" smooth="yes"/>
			<point x="706" y="357" type="line" smooth="yes"/>
			<point x="706" y="365"/>
			<point x="712" y="371"/>
			<point x="720" y="371" type="curve" smooth="yes"/>
			<point x="730" y="371" type="line" smooth="yes"/>
			<point x="771" y="371"/>
			<point x="802" y="402"/>
			<point x="802" y="442" type="curve" smooth="yes"/>
			<point x="802" y="629" type="line" smooth="yes"/>
			<point x="802" y="669"/>
			<point x="771" y="700"/>
			<point x="730" y="700" type="curve" smooth="yes"/>
			<point x="345" y="700" type="line" smooth="yes"/>
			<point x="305" y="700"/>
			<point x="274" y="669"/>
			<point x="274" y="629" type="curve" smooth="yes"/>
			<point x="274" y="624" type="line" smooth="yes"/>
			<point x="274" y="616"/>
			<point x="268" y="610"/>
			<point x="260" y="610" type="curve" smooth="yes"/>
			<point x="246" y="610" type="line" smooth="yes"/>
			<point x="238" y="610"/>
			<point x="232" y="616"/>
			<point x="232" y="624" type="curve" smooth="yes"/>
			<point x="232" y="629" type="line" smooth="yes"/>
			<point x="232" y="669"/>
			<point x="201" y="700"/>
			<point x="161" y="700" type="curve" smooth="yes"/>
			<point x="121" y="700" type="line" smooth="yes"/>
			<point x="81" y="700"/>
			<point x="50" y="669"/>
		</contour>
	</outline>
</glyph>
<glyph name="M" format="2">
	<advance width="852"/>
	<unicode hex="004D"/>
	<outline>
		<contour>
			<point x="50" y="71" type="curve" smooth="yes"/>
			<point x="50" y="628" type="line" smooth="yes"/>
			<point x="50" y="669"/>
			<point x="81" y="700"/>
			<point x="121" y="700" type="curve" smooth="yes"/>
			<point x="334" y="700" type="line" smooth="yes"/>
			<point x="374" y="700"/>
			<point x="405" y="669"/>
			<point x="405" y="628" type="curve" smooth="yes"/>
			<point x="405" y="620" type="line" smooth="yes"/>
			<point x="405" y="612"/>
			<point x="411" y="606"/>
			<point x="419" y="606" type="curve" smooth="yes"/>
			<point x="433" y="606" type="line" smooth="yes"/>
			<point x="441" y="606"/>
			<point x="447" y="612"/>
			<point x="447" y="620" type="curve" smooth="yes"/>
			<point x="447" y="628" type="line" smooth="yes"/>
			<point x="447" y="669"/>
			<point x="478" y="700"/>
			<point x="519" y="700" type="curve" smooth="yes"/>
			<point x="730" y="700" type="line" smooth="yes"/>
			<point x="771" y="700"/>
			<point x="802" y="669"/>
			<point x="802" y="628" type="curve" smooth="yes"/>
			<point x="802" y="71" type="line" smooth="yes"/>
			<point x="802" y="31"/>
			<point x="771" y="0"/>
			<point x="730" y="0" type="curve" smooth="yes"/>
			<point x="691" y="0" type="line" smooth="yes"/>
			<point x="650" y="0"/>
			<point x="619" y="31"/>
			<point x="619" y="71" type="curve" smooth="yes"/>
			<point x="619" y="82" type="line" smooth="yes"/>
			<point x="619" y="91"/>
			<point x="614" y="96"/>
			<point x="605" y="96" type="curve" smooth="yes"/>
			<point x="591" y="96" type="line" smooth="yes"/>
			<point x="583" y="96"/>
			<point x="577" y="91"/>
			<point x="577" y="82" type="curve" smooth="yes"/>
			<point x="577" y="71" type="line" smooth="yes"/>
			<point x="577" y="31"/>
			<point x="547" y="0"/>
			<point x="506" y="0" type="curve" smooth="yes"/>
			<point x="345" y="0" type="line" smooth="yes"/>
			<point x="305" y="0"/>
			<point x="274" y="31"/>
			<point x="274" y="71" type="curve" smooth="yes"/>
			<point x="274" y="82" type="line" smooth="yes"/>
			<point x="274" y="91"/>
			<point x="269" y="96"/>
			<point x="260" y="96" type="curve" smooth="yes"/>
			<point x="246" y="96" type="line" smooth="yes"/>
			<point x="238" y="96"/>
			<point x="232" y="91"/>
			<point x="232" y="82" type="curve" smooth="yes"/>
			<point x="232" y="71" type="line" smooth="yes"/>
			<point x="232" y="31"/>
			<point x="201" y="0"/>
			<point x="161" y="0" type="curve" smooth="yes"/>
			<point x="121" y="0" type="line" smooth="yes"/>
			<point x="81" y="0"/>
			<point x="50" y="31"/>
		</contour>
	</outline>
</glyph>
<glyph name="N" format="2">
	<advance width="852"/>
	<unicode hex="004E"/>
	<outline>
		<contour>
			<point x="50" y="628" type="curve" smooth="yes"/>
			<point x="50" y="72" type="line" smooth="yes"/>
			<point x="50" y="30"/>
			<point x="81" y="0"/>
			<point x="123" y="0" type="curve" smooth="yes"/>
			<point x="162" y="0" type="line" smooth="yes"/>
			<point x="202" y="0"/>
			<point x="232" y="30"/>
			<point x="232" y="70" type="curve" smooth="yes"/>
			<point x="232" y="86" type="line" smooth="yes"/>
			<point x="232" y="95"/>
			<point x="237" y="100"/>
			<point x="246" y="100" type="curve" smooth="yes"/>
			<point x="260" y="100" type="line" smooth="yes"/>
			<point x="268" y="100"/>
			<point x="274" y="95"/>
			<point x="274" y="86" type="curve" smooth="yes"/>
			<point x="274" y="72" type="line" smooth="yes"/>
			<point x="274" y="31"/>
			<point x="305" y="0"/>
			<point x="346" y="0" type="curve" smooth="yes"/>
			<point x="730" y="0" type="line" smooth="yes"/>
			<point x="771" y="0"/>
			<point x="802" y="31"/>
			<point x="802" y="72" type="curve" smooth="yes"/>
			<point x="802" y="628" type="line" smooth="yes"/>
			<point x="802" y="669"/>
			<point x="771" y="700"/>
			<point x="730" y="700" type="curve" smooth="yes"/>
			<point x="691" y="700" type="line" smooth="yes"/>
			<point x="650" y="700"/>
			<point x="620" y="669"/>
			<point x="620" y="628" type="curve" smooth="yes"/>
			<point x="620" y="623" type="line" smooth="yes"/>
			<point x="620" y="615"/>
			<point x="614" y="610"/>
			<point x="606" y="610" type="curve" smooth="yes"/>
			<point x="592" y="610" type="line" smooth="yes"/>
			<point x="583" y="610"/>
			<point x="578" y="615"/>
			<point x="578" y="623" type="curve" smooth="yes"/>
			<point x="578" y="628" type="line" smooth="yes"/>
			<point x="578" y="669"/>
			<point x="547" y="700"/>
			<point x="506" y="700" type="curve" smooth="yes"/>
			<point x="122" y="700" type="line" smooth="yes"/>
			<point x="81" y="700"/>
			<point x="50" y="669"/>
		</contour>
	</outline>
</glyph>
<glyph name="P" format="2">
	<advance width="852"/>
	<unicode hex="0050"/>
	<outline>
		<contour>
			<point x="50" y="629" type="curve" smooth="yes"/>
			<point x="50" y="71" type="line" smooth="yes"/>
			<point x="50" y="31"/>
			<point x="81" y="0"/>
			<point x="121" y="0" type="curve" smooth="yes"/>
			<point x="161" y="0" type="line" smooth="yes"/>
			<point x="201" y="0"/>
			<point x="232" y="-1"/>
			<point x="232" y="9" type="curve"/>
			<point x="232" y="13" type="line" smooth="yes"/>
			<point x="232" y="21"/>
			<point x="238" y="27"/>
			<point x="246" y="27" type="curve" smooth="yes"/>
			<point x="687" y="27" type="line" smooth="yes"/>
			<point x="753" y="27"/>
			<point x="802" y="76"/>
			<point x="802" y="142" type="curve" smooth="yes"/>
			<point x="802" y="585" type="line" smooth="yes"/>
			<point x="802" y="651"/>
			<point x="753" y="700"/>
			<point x="687" y="700" type="curve" smooth="yes"/>
			<point x="121" y="700" type="line" smooth="yes"/>
			<point x="81" y="700"/>
			<point x="50" y="669"/>
		</contour>
		<contour>
			<point x="456" y="372" type="curve" smooth="yes"/>
			<point x="396" y="372" type="line" smooth="yes"/>
			<point x="388" y="372"/>
			<point x="382" y="378"/>
			<point x="382" y="386" type="curve" smooth="yes"/>
			<point x="382" y="400" type="line" smooth="yes"/>
			<point x="382" y="409"/>
			<point x="388" y="414"/>
			<point x="396" y="414" type="curve" smooth="yes"/>
			<point x="456" y="414" type="line" smooth="yes"/>
			<point x="464" y="414"/>
			<point x="470" y="409"/>
			<point x="470" y="400" type="curve" smooth="yes"/>
			<point x="470" y="386" type="line" smooth="yes"/>
			<point x="470" y="378"/>
			<point x="464" y="372"/>
		</contour>
	</outline>
</glyph>
<glyph name="Q" format="2">
	<advance width="852"/>
	<unicode hex="0051"/>
	<outline>
		<contour>
			<point x="51" y="587" type="curve" smooth="yes"/>
			<point x="50" y="144" type="line" smooth="yes"/>
			<point x="50" y="77"/>
			<point x="99" y="29"/>
			<point x="165" y="29" type="curve" smooth="yes"/>
			<point x="218" y="29" type="line" smooth="yes"/>
			<point x="227" y="29"/>
			<point x="232" y="23"/>
			<point x="232" y="15" type="curve" smooth="yes"/>
			<point x="232" y="14" type="line" smooth="yes"/>
			<point x="232" y="6"/>
			<point x="238" y="0"/>
			<point x="246" y="0" type="curve" smooth="yes"/>
			<point x="788" y="0" type="line" smooth="yes"/>
			<point x="797" y="0"/>
			<point x="802" y="6"/>
			<point x="802" y="14" type="curve" smooth="yes"/>
			<point x="802" y="168" type="line" smooth="yes"/>
			<point x="802" y="177"/>
			<point x="797" y="182"/>
			<point x="788" y="182" type="curve" smooth="yes"/>
			<point x="787" y="182" type="line" smooth="yes"/>
			<point x="779" y="182"/>
			<point x="773" y="188"/>
			<point x="773" y="196" type="curve" smooth="yes"/>
			<point x="773" y="586" type="line" smooth="yes"/>
			<point x="773" y="651"/>
			<point x="724" y="700"/>
			<point x="658" y="700" type="curve" smooth="yes"/>
			<point x="165" y="700" type="line" smooth="yes"/>
			<point x="99" y="700"/>
			<point x="51" y="654"/>
		</contour>
		<contour>
			<point x="378" y="282" type="curve" smooth="yes"/>
			<point x="436" y="282" type="line" smooth="yes"/>
			<point x="444" y="282"/>
			<point x="450" y="276"/>
			<point x="450" y="268" type="curve" smooth="yes"/>
			<point x="450" y="254" type="line" smooth="yes"/>
			<point x="450" y="245"/>
			<point x="444" y="240"/>
			<point x="436" y="240" type="curve" smooth="yes"/>
			<point x="421" y="240" type="line" smooth="yes"/>
			<point x="413" y="240"/>
			<point x="411" y="240"/>
			<point x="407" y="240" type="curve"/>
			<point x="404" y="240" type="line"/>
			<point x="400" y="240"/>
			<point x="399" y="240"/>
			<point x="390" y="240" type="curve" smooth="yes"/>
			<point x="378" y="240" type="line" smooth="yes"/>
			<point x="369" y="240"/>
			<point x="364" y="246"/>
			<point x="364" y="254" type="curve" smooth="yes"/>
			<point x="364" y="268" type="line" smooth="yes"/>
			<point x="364" y="276"/>
			<point x="369" y="282"/>
		</contour>
	</outline>
</glyph>
<glyph name="R" format="2">
	<advance width="852"/>
	<unicode hex="0052"/>
	<outline>
		<contour>
			<point x="50" y="629" type="curve" smooth="yes"/>
			<point x="50" y="71" type="line" smooth="yes"/>
			<point x="50" y="31"/>
			<point x="81" y="0"/>
			<point x="121" y="0" type="curve" smooth="yes"/>
			<point x="161" y="0" type="line" smooth="yes"/>
			<point x="201" y="0"/>
			<point x="232" y="31"/>
			<point x="232" y="71" type="curve" smooth="yes"/>
			<point x="232" y="81" type="line" smooth="yes"/>
			<point x="232" y="90"/>
			<point x="238" y="95"/>
			<point x="246" y="95" type="curve" smooth="yes"/>
			<point x="260" y="95" type="line" smooth="yes"/>
			<point x="268" y="95"/>
			<point x="274" y="90"/>
			<point x="274" y="81" type="curve" smooth="yes"/>
			<point x="274" y="71" type="line" smooth="yes"/>
			<point x="274" y="31"/>
			<point x="305" y="0"/>
			<point x="345" y="0" type="curve" smooth="yes"/>
			<point x="731" y="0" type="line" smooth="yes"/>
			<point x="771" y="0"/>
			<point x="802" y="31"/>
			<point x="802" y="71" type="curve" smooth="yes"/>
			<point x="802" y="234" type="line" smooth="yes"/>
			<point x="802" y="274"/>
			<point x="771" y="305"/>
			<point x="731" y="305" type="curve" smooth="yes"/>
			<point x="680" y="305" type="line" smooth="yes"/>
			<point x="672" y="305"/>
			<point x="666" y="311"/>
			<point x="666" y="319" type="curve" smooth="yes"/>
			<point x="666" y="336" type="line" smooth="yes"/>
			<point x="666" y="344"/>
			<point x="672" y="350"/>
			<point x="680" y="350" type="curve" smooth="yes"/>
			<point x="687" y="350" type="line" smooth="yes"/>
			<point x="753" y="350"/>
			<point x="802" y="399"/>
			<point x="802" y="465" type="curve" smooth="yes"/>
			<point x="802" y="585" type="line" smooth="yes"/>
			<point x="802" y="651"/>
			<point x="753" y="700"/>
			<point x="687" y="700" type="curve" smooth="yes"/>
			<point x="121" y="700" type="line" smooth="yes"/>
			<point x="81" y="700"/>
			<point x="50" y="669"/>
		</contour>
		<contour>
			<point x="372" y="406" type="curve" smooth="yes"/>
			<point x="372" y="420" type="line" smooth="yes"/>
			<point x="372" y="429"/>
			<point x="378" y="434"/>
			<point x="386" y="434" type="curve" smooth="yes"/>
			<point x="466" y="434" type="line" smooth="yes"/>
			<point x="474" y="434"/>
			<point x="480" y="429"/>
			<point x="480" y="420" type="curve" smooth="yes"/>
			<point x="480" y="406" type="line" smooth="yes"/>
			<point x="480" y="398"/>
			<point x="474" y="392"/>
			<point x="466" y="392" type="curve" smooth="yes"/>
			<point x="386" y="392" type="line" smooth="yes"/>
			<point x="378" y="392"/>
			<point x="372" y="398"/>
		</contour>
	</outline>
</glyph>
<glyph name="T" format="2">
	<advance width="852"/>
	<unicode hex="0054"/>
	<outline>
		<contour>
			<point x="121" y="0" type="curve" smooth="yes"/>
			<point x="161" y="0" type="line" smooth="yes"/>
			<point x="201" y="0"/>
			<point x="232" y="31"/>
			<point x="232" y="71" type="curve" smooth="yes"/>
			<point x="232" y="218" type="line" smooth="yes"/>
			<point x="232" y="227"/>
			<point x="238" y="232"/>
			<point x="246" y="232" type="curve" smooth="yes"/>
			<point x="260" y="232" type="line" smooth="yes"/>
			<point x="268" y="232"/>
			<point x="274" y="227"/>
			<point x="274" y="218" type="curve" smooth="yes"/>
			<point x="274" y="71" type="line" smooth="yes"/>
			<point x="274" y="31"/>
			<point x="305" y="0"/>
			<point x="345" y="0" type="curve" smooth="yes"/>
			<point x="506" y="0" type="line" smooth="yes"/>
			<point x="547" y="0"/>
			<point x="578" y="31"/>
			<point x="578" y="71" type="curve" smooth="yes"/>
			<point x="578" y="218" type="line" smooth="yes"/>
			<point x="578" y="227"/>
			<point x="583" y="232"/>
			<point x="592" y="232" type="curve" smooth="yes"/>
			<point x="606" y="232" type="line" smooth="yes"/>
			<point x="614" y="232"/>
			<point x="620" y="227"/>
			<point x="620" y="218" type="curve" smooth="yes"/>
			<point x="620" y="71" type="line" smooth="yes"/>
			<point x="620" y="31"/>
			<point x="651" y="0"/>
			<point x="691" y="0" type="curve" smooth="yes"/>
			<point x="731" y="0" type="line" smooth="yes"/>
			<point x="771" y="0"/>
			<point x="802" y="31"/>
			<point x="802" y="71" type="curve" smooth="yes"/>
			<point x="802" y="629" type="line" smooth="yes"/>
			<point x="802" y="669"/>
			<point x="771" y="700"/>
			<point x="731" y="700" type="curve" smooth="yes"/>
			<point x="121" y="700" type="line" smooth="yes"/>
			<point x="81" y="700"/>
			<point x="50" y="669"/>
			<point x="50" y="629" type="curve" smooth="yes"/>
			<point x="50" y="71" type="line" smooth="yes"/>
			<point x="50" y="31"/>
			<point x="81" y="0"/>
		</contour>
	</outline>
</glyph>
<glyph name="W" format="2">
	<advance width="852"/>
	<unicode hex="0057"/>
	<outline>
		<contour>
			<point x="50" y="629" type="curve" smooth="yes"/>
			<point x="50" y="71" type="line" smooth="yes"/>
			<point x="50" y="31"/>
			<point x="81" y="0"/>
			<point x="121" y="0" type="curve" smooth="yes"/>
			<point x="329" y="0" type="line" smooth="yes"/>
			<point x="369" y="0"/>
			<point x="400" y="31"/>
			<point x="400" y="71" type="curve" smooth="yes"/>
			<point x="400" y="86" type="line" smooth="yes"/>
			<point x="400" y="94"/>
			<point x="406" y="100"/>
			<point x="414" y="100" type="curve" smooth="yes"/>
			<point x="428" y="100" type="line" smooth="yes"/>
			<point x="436" y="100"/>
			<point x="442" y="94"/>
			<point x="442" y="86" type="curve" smooth="yes"/>
			<point x="442" y="71" type="line" smooth="yes"/>
			<point x="442" y="31"/>
			<point x="473" y="0"/>
			<point x="513" y="0" type="curve" smooth="yes"/>
			<point x="730" y="0" type="line" smooth="yes"/>
			<point x="771" y="0"/>
			<point x="802" y="31"/>
			<point x="802" y="71" type="curve" smooth="yes"/>
			<point x="802" y="629" type="line" smooth="yes"/>
			<point x="802" y="669"/>
			<point x="771" y="700"/>
			<point x="730" y="700" type="curve" smooth="yes"/>
			<point x="691" y="700" type="line" smooth="yes"/>
			<point x="651" y="700"/>
			<point x="620" y="669"/>
			<point x="620" y="629" type="curve" smooth="yes"/>
			<point x="620" y="618" type="line" smooth="yes"/>
			<point x="620" y="610"/>
			<point x="614" y="604"/>
			<point x="606" y="604" type="curve" smooth="yes"/>
			<point x="592" y="604" type="line" smooth="yes"/>
			<point x="583" y="604"/>
			<point x="578" y="610"/>
			<point x="578" y="618" type="curve" smooth="yes"/>
			<point x="578" y="629" type="line" smooth="yes"/>
			<point x="578" y="669"/>
			<point x="547" y="700"/>
			<point x="506" y="700" type="curve" smooth="yes"/>
			<point x="345" y="700" type="line" smooth="yes"/>
			<point x="305" y="700"/>
			<point x="274" y="669"/>
			<point x="274" y="629" type="curve" smooth="yes"/>
			<point x="274" y="618" type="line" smooth="yes"/>
			<point x="274" y="610"/>
			<point x="268" y="604"/>
			<point x="260" y="604" type="curve" smooth="yes"/>
			<point x="246" y="604" type="line" smooth="yes"/>
			<point x="238" y="604"/>
			<point x="232" y="610"/>
			<point x="232" y="618" type="curve" smooth="yes"/>
			<point x="232" y="629" type="line" smooth="yes"/>
			<point x="232" y="669"/>
			<point x="201" y="700"/>
			<point x="161" y="700" type="curve" smooth="yes"/>
			<point x="121" y="700" type="line" smooth="yes"/>
			<point x="81" y="700"/>
			<point x="50" y="669"/>
		</contour>
	</outline>
</glyph>
<glyph name="X" format="2">
	<advance width="852"/>
	<unicode hex="0058"/>
	<outline>
		<contour>
			<point x="50" y="629" type="curve" smooth="yes"/>
			<point x="50" y="442" type="line" smooth="yes"/>
			<point x="50" y="402"/>
			<point x="81" y="371"/>
			<point x="121" y="371" type="curve" smooth="yes"/>
			<point x="126" y="371" type="line" smooth="yes"/>
			<point x="134" y="371"/>
			<point x="140" y="365"/>
			<point x="140" y="357" type="curve" smooth="yes"/>
			<point x="140" y="343" type="line" smooth="yes"/>
			<point x="140" y="335"/>
			<point x="134" y="329"/>
			<point x="126" y="329" type="curve" smooth="yes"/>
			<point x="121" y="329" type="line" smooth="yes"/>
			<point x="81" y="329"/>
			<point x="50" y="298"/>
			<point x="50" y="258" type="curve" smooth="yes"/>
			<point x="50" y="71" type="line" smooth="yes"/>
			<point x="50" y="31"/>
			<point x="81" y="0"/>
			<point x="121" y="0" type="curve" smooth="yes"/>
			<point x="333" y="0" type="line" smooth="yes"/>
			<point x="373" y="0"/>
			<point x="404" y="31"/>
			<point x="404" y="71" type="curve" smooth="yes"/>
			<point x="404" y="81" type="line" smooth="yes"/>
			<point x="404" y="89"/>
			<point x="410" y="95"/>
			<point x="418" y="95" type="curve" smooth="yes"/>
			<point x="432" y="95" type="line" smooth="yes"/>
			<point x="441" y="95"/>
			<point x="446" y="89"/>
			<point x="446" y="81" type="curve" smooth="yes"/>
			<point x="446" y="71" type="line" smooth="yes"/>
			<point x="446" y="31"/>
			<point x="477" y="0"/>
			<point x="518" y="0" type="curve" smooth="yes"/>
			<point x="730" y="0" type="line" smooth="yes"/>
			<point x="771" y="0"/>
			<point x="802" y="31"/>
			<point x="802" y="71" type="curve" smooth="yes"/>
			<point x="802" y="258" type="line" smooth="yes"/>
			<point x="802" y="298"/>
			<point x="771" y="329"/>
			<point x="730" y="329" type="curve" smooth="yes"/>
			<point x="724" y="329" type="line" smooth="yes"/>
			<point x="716" y="329"/>
			<point x="710" y="335"/>
			<point x="710" y="343" type="curve" smooth="yes"/>
			<point x="710" y="357" type="line" smooth="yes"/>
			<point x="710" y="365"/>
			<point x="716" y="371"/>
			<point x="724" y="371" type="curve" smooth="yes"/>
			<point x="730" y="371" type="line" smooth="yes"/>
			<point x="771" y="371"/>
			<point x="802" y="402"/>
			<point x="802" y="442" type="curve" smooth="yes"/>
			<point x="802" y="629" type="line" smooth="yes"/>
			<point x="802" y="669"/>
			<point x="771" y="700"/>
			<point x="730" y="700" type="curve" smooth="yes"/>
			<point x="518" y="700" type="line" smooth="yes"/>
			<point x="477" y="700"/>
			<point x="446" y="669"/>
			<point x="446" y="629" type="curve" smooth="yes"/>
			<point x="446" y="619" type="line" smooth="yes"/>
			<point x="446" y="611"/>
			<point x="441" y="605"/>
			<point x="432" y="605" type="curve" smooth="yes"/>
			<point x="418" y="605" type="line" smooth="yes"/>
			<point x="410" y="605"/>
			<point x="404" y="611"/>
			<point x="404" y="619" type="curve" smooth="yes"/>
			<point x="404" y="629" type="line" smooth="yes"/>
			<point x="404" y="669"/>
			<point x="373" y="700"/>
			<point x="333" y="700" type="curve" smooth="yes"/>
			<point x="121" y="700" type="line" smooth="yes"/>
			<point x="81" y="700"/>
			<point x="50" y="669"/>
		</contour>
	</outline>
</glyph>
<glyph name="Y" format="2">
	<advance width="853"/>
	<unicode hex="0059"/>
	<outline>
		<contour>
			<point x="50" y="629" type="curve" smooth="yes"/>
			<point x="50" y="422" type="line" smooth="yes"/>
			<point x="50" y="381"/>
			<point x="81" y="350"/>
			<point x="121" y="350" type="curve" smooth="yes"/>
			<point x="128" y="350" type="line" smooth="yes"/>
			<point x="136" y="350"/>
			<point x="142" y="344"/>
			<point x="142" y="336" type="curve" smooth="yes"/>
			<point x="142" y="71" type="line" smooth="yes"/>
			<point x="142" y="31"/>
			<point x="173" y="0"/>
			<point x="213" y="0" type="curve" smooth="yes"/>
			<point x="642" y="0" type="line" smooth="yes"/>
			<point x="683" y="0"/>
			<point x="713" y="31"/>
			<point x="713" y="71" type="curve" smooth="yes"/>
			<point x="713" y="336" type="line" smooth="yes"/>
			<point x="713" y="344"/>
			<point x="719" y="350"/>
			<point x="727" y="350" type="curve" smooth="yes"/>
			<point x="732" y="350" type="line" smooth="yes"/>
			<point x="773" y="350"/>
			<point x="803" y="381"/>
			<point x="803" y="422" type="curve" smooth="yes"/>
			<point x="803" y="629" type="line" smooth="yes"/>
			<point x="803" y="669"/>
			<point x="773" y="700"/>
			<point x="732" y="700" type="curve" smooth="yes"/>
			<point x="520" y="700" type="line" smooth="yes"/>
			<point x="479" y="700"/>
			<point x="448" y="669"/>
			<point x="448" y="629" type="curve" smooth="yes"/>
			<point x="448" y="622" type="line" smooth="yes"/>
			<point x="448" y="614"/>
			<point x="443" y="608"/>
			<point x="434" y="608" type="curve" smooth="yes"/>
			<point x="420" y="608" type="line" smooth="yes"/>
			<point x="412" y="608"/>
			<point x="406" y="614"/>
			<point x="406" y="622" type="curve" smooth="yes"/>
			<point x="406" y="629" type="line" smooth="yes"/>
			<point x="406" y="669"/>
			<point x="375" y="700"/>
			<point x="335" y="700" type="curve" smooth="yes"/>
			<point x="121" y="700" type="line" smooth="yes"/>
			<point x="81" y="700"/>
			<point x="50" y="669"/>
		</contour>
	</outline>
</glyph>
<glyph name="Z" format="2">
	<advance width="852"/>
	<unicode hex="005A"/>
	<outline>
		<contour>
			<point x="121" y="700" type="curve" smooth="yes"/>
			<point x="731" y="700" type="line" smooth="yes"/>
			<point x="771" y="700"/>
			<point x="802" y="670"/>
			<point x="802" y="629" type="curve" smooth="yes"/>
			<point x="802" y="296" type="line" smooth="yes"/>
			<point x="802" y="255"/>
			<point x="771" y="224"/>
			<point x="731" y="224" type="curve" smooth="yes"/>
			<point x="715" y="224" type="line" smooth="yes"/>
			<point x="707" y="224"/>
			<point x="701" y="219"/>
			<point x="701" y="210" type="curve" smooth="yes"/>
			<point x="701" y="196" type="line" smooth="yes"/>
			<point x="701" y="188"/>
			<point x="707" y="182"/>
			<point x="715" y="182" type="curve" smooth="yes"/>
			<point x="731" y="182" type="line" smooth="yes"/>
			<point x="771" y="182"/>
			<point x="802" y="151"/>
			<point x="802" y="111" type="curve" smooth="yes"/>
			<point x="802" y="71" type="line" smooth="yes"/>
			<point x="802" y="31"/>
			<point x="771" y="0"/>
			<point x="731" y="0" type="curve" smooth="yes"/>
			<point x="121" y="0" type="line" smooth="yes"/>
			<point x="81" y="0"/>
			<point x="50" y="31"/>
			<point x="50" y="71" type="curve" smooth="yes"/>
			<point x="50" y="405" type="line" smooth="yes"/>
			<point x="50" y="445"/>
			<point x="81" y="476"/>
			<point x="121" y="476" type="curve" smooth="yes"/>
			<point x="135" y="476" type="line" smooth="yes"/>
			<point x="143" y="476"/>
			<point x="149" y="482"/>
			<point x="149" y="490" type="curve" smooth="yes"/>
			<point x="149" y="504" type="line" smooth="yes"/>
			<point x="149" y="513"/>
			<point x="143" y="518"/>
			<point x="135" y="518" type="curve" smooth="yes"/>
			<point x="121" y="518" type="line" smooth="yes"/>
			<point x="81" y="518"/>
			<point x="50" y="549"/>
			<point x="50" y="590" type="curve" smooth="yes"/>
			<point x="50" y="629" type="line" smooth="yes"/>
			<point x="50" y="670"/>
			<point x="81" y="700"/>
		</contour>
	</outline>
</glyph>
<glyph name="a" format="2">
	<advance width="639"/>
	<unicode hex="0061"/>
	<outline>
		<contour>
			<point x="50" y="50" type="curve" smooth="yes"/>
			<point x="50" y="449" type="line" smooth="yes"/>
			<point x="50" y="477"/>
			<point x="71" y="500"/>
			<point x="99" y="500" type="curve" smooth="yes"/>
			<point x="537" y="500" type="line" smooth="yes"/>
			<point x="566" y="500"/>
			<point x="589" y="477"/>
			<point x="589" y="449" type="curve" smooth="yes"/>
			<point x="589" y="50" type="line" smooth="yes"/>
			<point x="589" y="21"/>
			<point x="566" y="0"/>
			<point x="537" y="0" type="curve" smooth="yes"/>
			<point x="506" y="0" type="line" smooth="yes"/>
			<point x="477" y="0"/>
			<point x="456" y="-4"/>
			<point x="456" y="24" type="curve" smooth="yes"/>
			<point x="456" y="26" type="line" smooth="yes"/>
			<point x="456" y="32"/>
			<point x="451" y="36"/>
			<point x="446" y="36" type="curve" smooth="yes"/>
			<point x="193" y="36" type="line" smooth="yes"/>
			<point x="188" y="36"/>
			<point x="183" y="32"/>
			<point x="183" y="26" type="curve" smooth="yes"/>
			<point x="183" y="24" type="line" smooth="yes"/>
			<point x="183" y="-4"/>
			<point x="161" y="0"/>
			<point x="133" y="0" type="curve" smooth="yes"/>
			<point x="99" y="0" type="line" smooth="yes"/>
			<point x="71" y="0"/>
			<point x="50" y="23"/>
		</contour>
		<contour>
			<point x="276" y="193" type="curve" smooth="yes"/>
			<point x="348" y="193" type="line" smooth="yes"/>
			<point x="354" y="193"/>
			<point x="358" y="197"/>
			<point x="358" y="203" type="curve" smooth="yes"/>
			<point x="358" y="213" type="line" smooth="yes"/>
			<point x="358" y="219"/>
			<point x="354" y="223"/>
			<point x="348" y="223" type="curve" smooth="yes"/>
			<point x="276" y="223" type="line" smooth="yes"/>
			<point x="271" y="223"/>
			<point x="266" y="219"/>
			<point x="266" y="213" type="curve" smooth="yes"/>
			<point x="266" y="203" type="line" smooth="yes"/>
			<point x="266" y="197"/>
			<point x="271" y="193"/>
		</contour>
	</outline>
</glyph>
<glyph name="b" format="2">
	<advance width="637"/>
	<unicode hex="0062"/>
	<outline>
		<contour>
			<point x="101" y="500" type="curve" smooth="yes"/>
			<point x="505" y="500" type="line" smooth="yes"/>
			<point x="552" y="500"/>
			<point x="587" y="465"/>
			<point x="587" y="418" type="curve" smooth="yes"/>
			<point x="587" y="316" type="line" smooth="yes"/>
			<point x="587" y="287"/>
			<point x="589" y="265"/>
			<point x="568" y="265" type="curve" smooth="yes"/>
			<point x="560" y="265" type="line" smooth="yes"/>
			<point x="554" y="265"/>
			<point x="550" y="261"/>
			<point x="550" y="255" type="curve" smooth="yes"/>
			<point x="550" y="245" type="line" smooth="yes"/>
			<point x="550" y="239"/>
			<point x="554" y="235"/>
			<point x="560" y="235" type="curve" smooth="yes"/>
			<point x="568" y="235" type="line" smooth="yes"/>
			<point x="586" y="235"/>
			<point x="586" y="213"/>
			<point x="586" y="184" type="curve" smooth="yes"/>
			<point x="586" y="82" type="line" smooth="yes"/>
			<point x="586" y="35"/>
			<point x="551" y="0"/>
			<point x="504" y="0" type="curve" smooth="yes"/>
			<point x="101" y="0" type="line" smooth="yes"/>
			<point x="72" y="0"/>
			<point x="50" y="22"/>
			<point x="50" y="51" type="curve" smooth="yes"/>
			<point x="50" y="449" type="line" smooth="yes"/>
			<point x="50" y="478"/>
			<point x="72" y="500"/>
		</contour>
		<contour>
			<point x="331" y="235" type="curve" smooth="yes"/>
			<point x="304" y="235" type="line" smooth="yes"/>
			<point x="297" y="235"/>
			<point x="294" y="231"/>
			<point x="294" y="225" type="curve" smooth="yes"/>
			<point x="294" y="215" type="line" smooth="yes"/>
			<point x="294" y="209"/>
			<point x="297" y="205"/>
			<point x="304" y="205" type="curve" smooth="yes"/>
			<point x="331" y="205" type="line" smooth="yes"/>
			<point x="338" y="205"/>
			<point x="341" y="209"/>
			<point x="341" y="215" type="curve" smooth="yes"/>
			<point x="341" y="225" type="line" smooth="yes"/>
			<point x="341" y="231"/>
			<point x="338" y="235"/>
		</contour>
		<contour>
			<point x="331" y="295" type="curve" smooth="yes"/>
			<point x="304" y="295" type="line" smooth="yes"/>
			<point x="297" y="295"/>
			<point x="294" y="291"/>
			<point x="294" y="285" type="curve" smooth="yes"/>
			<point x="294" y="275" type="line" smooth="yes"/>
			<point x="294" y="269"/>
			<point x="297" y="265"/>
			<point x="304" y="265" type="curve" smooth="yes"/>
			<point x="331" y="265" type="line" smooth="yes"/>
			<point x="338" y="265"/>
			<point x="341" y="269"/>
			<point x="341" y="275" type="curve" smooth="yes"/>
			<point x="341" y="285" type="line" smooth="yes"/>
			<point x="341" y="291"/>
			<point x="338" y="295"/>
		</contour>
	</outline>
</glyph>
<glyph name="d" format="2">
	<advance width="636"/>
	<unicode hex="0064"/>
	<outline>
		<contour>
			<point x="50" y="51" type="line"/>
			<point x="50" y="22"/>
			<point x="72" y="0"/>
			<point x="101" y="0" type="curve"/>
			<point x="506" y="0" type="line"/>
			<point x="552" y="0"/>
			<point x="586" y="34"/>
			<point x="586" y="82" type="curve"/>
			<point x="586" y="418" type="line"/>
			<point x="586" y="465"/>
			<point x="552" y="500"/>
			<point x="506" y="500" type="curve"/>
			<point x="101" y="500" type="line"/>
			<point x="72" y="500"/>
			<point x="50" y="478"/>
			<point x="50" y="449" type="curve"/>
		</contour>
		<contour>
			<point x="314" y="266" type="curve"/>
			<point x="340" y="266" type="line"/>
			<point x="346" y="266"/>
			<point x="349" y="261"/>
			<point x="349" y="256" type="curve"/>
			<point x="349" y="245" type="line"/>
			<point x="349" y="239"/>
			<point x="346" y="235"/>
			<point x="340" y="235" type="curve"/>
			<point x="314" y="235" type="line"/>
			<point x="308" y="235"/>
			<point x="304" y="239"/>
			<point x="304" y="245" type="curve"/>
			<point x="304" y="256" type="line"/>
			<point x="304" y="261"/>
			<point x="308" y="266"/>
		</contour>
	</outline>
</glyph>
<glyph name="e" format="2">
	<advance width="637"/>
	<unicode hex="0065"/>
	<anchor x="288" y="500" name="top"/>
	<outline>
		<contour>
			<point x="50" y="449" type="curve" smooth="yes"/>
			<point x="50" y="51" type="line" smooth="yes"/>
			<point x="50" y="22"/>
			<point x="72" y="0"/>
			<point x="101" y="0" type="curve" smooth="yes"/>
			<point x="536" y="0" type="line" smooth="yes"/>
			<point x="565" y="0"/>
			<point x="587" y="22"/>
			<point x="587" y="51" type="curve" smooth="yes"/>
			<point x="587" y="79" type="line" smooth="yes"/>
			<point x="587" y="108"/>
			<point x="565" y="130"/>
			<point x="536" y="130" type="curve" smooth="yes"/>
			<point x="501" y="130" type="line" smooth="yes"/>
			<point x="495" y="130"/>
			<point x="491" y="134"/>
			<point x="491" y="140" type="curve" smooth="yes"/>
			<point x="491" y="150" type="line" smooth="yes"/>
			<point x="491" y="156"/>
			<point x="495" y="160"/>
			<point x="501" y="160" type="curve" smooth="yes"/>
			<point x="536" y="160" type="line" smooth="yes"/>
			<point x="565" y="160"/>
			<point x="587" y="182"/>
			<point x="587" y="211" type="curve" smooth="yes"/>
			<point x="587" y="289" type="line" smooth="yes"/>
			<point x="587" y="318"/>
			<point x="565" y="340"/>
			<point x="536" y="340" type="curve" smooth="yes"/>
			<point x="501" y="340" type="line" smooth="yes"/>
			<point x="495" y="340"/>
			<point x="491" y="344"/>
			<point x="491" y="350" type="curve" smooth="yes"/>
			<point x="491" y="360" type="line" smooth="yes"/>
			<point x="491" y="366"/>
			<point x="495" y="370"/>
			<point x="501" y="370" type="curve" smooth="yes"/>
			<point x="536" y="370" type="line" smooth="yes"/>
			<point x="565" y="370"/>
			<point x="587" y="392"/>
			<point x="587" y="421" type="curve" smooth="yes"/>
			<point x="587" y="449" type="line" smooth="yes"/>
			<point x="587" y="478"/>
			<point x="565" y="500"/>
			<point x="536" y="500" type="curve" smooth="yes"/>
			<point x="101" y="500" type="line" smooth="yes"/>
			<point x="72" y="500"/>
			<point x="50" y="478"/>
		</contour>
	</outline>
</glyph>
<glyph name="f" format="2">
	<advance width="637"/>
	<unicode hex="0066"/>
	<outline>
		<contour>
			<point x="50" y="450" type="curve" smooth="yes"/>
			<point x="50" y="51" type="line" smooth="yes"/>
			<point x="50" y="23"/>
			<point x="72" y="0"/>
			<point x="101" y="0" type="curve" smooth="yes"/>
			<point x="129" y="0" type="line" smooth="yes"/>
			<point x="158" y="0"/>
			<point x="180" y="-1"/>
			<point x="180" y="8" type="curve" smooth="yes"/>
			<point x="180" y="10" type="line" smooth="yes"/>
			<point x="180" y="15"/>
			<point x="184" y="20"/>
			<point x="190" y="20" type="curve" smooth="yes"/>
			<point x="535" y="20" type="line" smooth="yes"/>
			<point x="565" y="20"/>
			<point x="587" y="42"/>
			<point x="587" y="71" type="curve" smooth="yes"/>
			<point x="587" y="216" type="line" smooth="yes"/>
			<point x="587" y="245"/>
			<point x="565" y="266"/>
			<point x="535" y="266" type="curve" smooth="yes"/>
			<point x="526" y="266" type="line" smooth="yes"/>
			<point x="521" y="266"/>
			<point x="516" y="270"/>
			<point x="516" y="275" type="curve" smooth="yes"/>
			<point x="516" y="285" type="line" smooth="yes"/>
			<point x="516" y="292"/>
			<point x="521" y="295"/>
			<point x="526" y="295" type="curve" smooth="yes"/>
			<point x="535" y="295" type="line" smooth="yes"/>
			<point x="565" y="295"/>
			<point x="587" y="319"/>
			<point x="587" y="348" type="curve" smooth="yes"/>
			<point x="587" y="450" type="line" smooth="yes"/>
			<point x="587" y="479"/>
			<point x="565" y="500"/>
			<point x="535" y="500" type="curve" smooth="yes"/>
			<point x="101" y="500" type="line" smooth="yes"/>
			<point x="72" y="500"/>
			<point x="50" y="479"/>
		</contour>
	</outline>
</glyph>
<glyph name="g" format="2">
	<advance width="637"/>
	<unicode hex="0067"/>
	<outline>
		<contour>
			<point x="50" y="418" type="curve" smooth="yes"/>
			<point x="50" y="82" type="line" smooth="yes"/>
			<point x="50" y="35"/>
			<point x="85" y="0"/>
			<point x="132" y="0" type="curve" smooth="yes"/>
			<point x="505" y="0" type="line" smooth="yes"/>
			<point x="552" y="0"/>
			<point x="587" y="35"/>
			<point x="587" y="82" type="curve" smooth="yes"/>
			<point x="587" y="169" type="line" smooth="yes"/>
			<point x="587" y="198"/>
			<point x="565" y="220"/>
			<point x="536" y="220" type="curve" smooth="yes"/>
			<point x="427" y="220" type="line" smooth="yes"/>
			<point x="421" y="220"/>
			<point x="421" y="220"/>
			<point x="417" y="220" type="curve"/>
			<point x="416" y="220" type="line" smooth="yes"/>
			<point x="411" y="220"/>
			<point x="418" y="220"/>
			<point x="416" y="220" type="curve"/>
			<point x="415" y="220" type="line"/>
			<point x="414" y="220"/>
			<point x="416" y="220"/>
			<point x="414" y="220" type="curve"/>
			<point x="413" y="220" type="line"/>
			<point x="411" y="220"/>
			<point x="413" y="220"/>
			<point x="407" y="220" type="curve" smooth="yes"/>
			<point x="397" y="220" type="line" smooth="yes"/>
			<point x="391" y="220"/>
			<point x="387" y="224"/>
			<point x="387" y="229" type="curve" smooth="yes"/>
			<point x="387" y="240" type="line" smooth="yes"/>
			<point x="387" y="246"/>
			<point x="391" y="250"/>
			<point x="397" y="250" type="curve" smooth="yes"/>
			<point x="536" y="250" type="line" smooth="yes"/>
			<point x="565" y="250"/>
			<point x="587" y="272"/>
			<point x="587" y="301" type="curve" smooth="yes"/>
			<point x="587" y="449" type="line" smooth="yes"/>
			<point x="587" y="478"/>
			<point x="565" y="500"/>
			<point x="536" y="500" type="curve" smooth="yes"/>
			<point x="132" y="500" type="line" smooth="yes"/>
			<point x="85" y="500"/>
			<point x="50" y="465"/>
		</contour>
	</outline>
</glyph>
<glyph name="h" format="2">
	<advance width="637"/>
	<unicode hex="0068"/>
	<outline>
		<contour>
			<point x="50" y="449" type="curve" smooth="yes"/>
			<point x="50" y="51" type="line" smooth="yes"/>
			<point x="50" y="22"/>
			<point x="72" y="0"/>
			<point x="101" y="0" type="curve" smooth="yes"/>
			<point x="253" y="0" type="line" smooth="yes"/>
			<point x="282" y="0"/>
			<point x="304" y="22"/>
			<point x="304" y="51" type="curve" smooth="yes"/>
			<point x="304" y="61" type="line" smooth="yes"/>
			<point x="304" y="66"/>
			<point x="308" y="71"/>
			<point x="314" y="71" type="curve" smooth="yes"/>
			<point x="324" y="71" type="line" smooth="yes"/>
			<point x="330" y="71"/>
			<point x="334" y="66"/>
			<point x="334" y="61" type="curve" smooth="yes"/>
			<point x="334" y="51" type="line" smooth="yes"/>
			<point x="334" y="22"/>
			<point x="356" y="0"/>
			<point x="385" y="0" type="curve" smooth="yes"/>
			<point x="536" y="0" type="line" smooth="yes"/>
			<point x="565" y="0"/>
			<point x="587" y="22"/>
			<point x="587" y="51" type="curve" smooth="yes"/>
			<point x="587" y="449" type="line" smooth="yes"/>
			<point x="587" y="478"/>
			<point x="565" y="500"/>
			<point x="536" y="500" type="curve" smooth="yes"/>
			<point x="385" y="500" type="line" smooth="yes"/>
			<point x="356" y="500"/>
			<point x="334" y="478"/>
			<point x="334" y="449" type="curve" smooth="yes"/>
			<point x="334" y="440" type="line" smooth="yes"/>
			<point x="334" y="434"/>
			<point x="330" y="430"/>
			<point x="324" y="430" type="curve" smooth="yes"/>
			<point x="314" y="430" type="line" smooth="yes"/>
			<point x="308" y="430"/>
			<point x="304" y="434"/>
			<point x="304" y="440" type="curve" smooth="yes"/>
			<point x="304" y="449" type="line" smooth="yes"/>
			<point x="304" y="478"/>
			<point x="282" y="500"/>
			<point x="253" y="500" type="curve" smooth="yes"/>
			<point x="101" y="500" type="line" smooth="yes"/>
			<point x="72" y="500"/>
			<point x="50" y="478"/>
		</contour>
	</outline>
</glyph>
<glyph name="i" format="2">
	<advance width="536"/>
	<unicode hex="0069"/>
	<outline>
		<contour>
			<point x="50" y="449" type="curve" smooth="yes"/>
			<point x="50" y="51" type="line" smooth="yes"/>
			<point x="50" y="22"/>
			<point x="72" y="0"/>
			<point x="101" y="0" type="curve" smooth="yes"/>
			<point x="434" y="0" type="line" smooth="yes"/>
			<point x="464" y="0"/>
			<point x="486" y="22"/>
			<point x="486" y="51" type="curve" smooth="yes"/>
			<point x="486" y="449" type="line" smooth="yes"/>
			<point x="486" y="478"/>
			<point x="464" y="500"/>
			<point x="434" y="500" type="curve" smooth="yes"/>
			<point x="101" y="500" type="line" smooth="yes"/>
			<point x="72" y="500"/>
			<point x="50" y="478"/>
		</contour>
	</outline>
</glyph>
<glyph name="l" format="2">
	<advance width="637"/>
	<unicode hex="006C"/>
	<outline>
		<contour>
			<point x="50" y="449" type="curve" smooth="yes"/>
			<point x="50" y="51" type="line" smooth="yes"/>
			<point x="50" y="22"/>
			<point x="72" y="0"/>
			<point x="101" y="0" type="curve" smooth="yes"/>
			<point x="536" y="0" type="line" smooth="yes"/>
			<point x="565" y="0"/>
			<point x="587" y="22"/>
			<point x="587" y="51" type="curve" smooth="yes"/>
			<point x="587" y="122" type="line" smooth="yes"/>
			<point x="587" y="151"/>
			<point x="565" y="173"/>
			<point x="536" y="173" type="curve" smooth="yes"/>
			<point x="533" y="173" type="line" smooth="yes"/>
			<point x="527" y="173"/>
			<point x="523" y="177"/>
			<point x="523" y="183" type="curve" smooth="yes"/>
			<point x="523" y="449" type="line" smooth="yes"/>
			<point x="523" y="478"/>
			<point x="501" y="500"/>
			<point x="472" y="500" type="curve" smooth="yes"/>
			<point x="101" y="500" type="line" smooth="yes"/>
			<point x="72" y="500"/>
			<point x="50" y="478"/>
		</contour>
	</outline>
</glyph>
<glyph name="m" format="2">
	<advance width="637"/>
	<unicode hex="006D"/>
	<outline>
		<contour>
			<point x="50" y="51" type="curve" smooth="yes"/>
			<point x="50" y="449" type="line" smooth="yes"/>
			<point x="50" y="478"/>
			<point x="72" y="500"/>
			<point x="101" y="500" type="curve" smooth="yes"/>
			<point x="253" y="500" type="line" smooth="yes"/>
			<point x="281" y="500"/>
			<point x="304" y="478"/>
			<point x="304" y="449" type="curve" smooth="yes"/>
			<point x="304" y="443" type="line" smooth="yes"/>
			<point x="304" y="437"/>
			<point x="308" y="433"/>
			<point x="314" y="433" type="curve" smooth="yes"/>
			<point x="324" y="433" type="line" smooth="yes"/>
			<point x="329" y="433"/>
			<point x="334" y="437"/>
			<point x="334" y="443" type="curve" smooth="yes"/>
			<point x="334" y="449" type="line" smooth="yes"/>
			<point x="334" y="478"/>
			<point x="356" y="500"/>
			<point x="385" y="500" type="curve" smooth="yes"/>
			<point x="536" y="500" type="line" smooth="yes"/>
			<point x="565" y="500"/>
			<point x="587" y="478"/>
			<point x="587" y="449" type="curve" smooth="yes"/>
			<point x="587" y="51" type="line" smooth="yes"/>
			<point x="587" y="22"/>
			<point x="565" y="0"/>
			<point x="536" y="0" type="curve" smooth="yes"/>
			<point x="508" y="0" type="line" smooth="yes"/>
			<point x="479" y="0"/>
			<point x="456" y="22"/>
			<point x="456" y="51" type="curve" smooth="yes"/>
			<point x="456" y="59" type="line" smooth="yes"/>
			<point x="456" y="65"/>
			<point x="453" y="69"/>
			<point x="446" y="69" type="curve" smooth="yes"/>
			<point x="436" y="69" type="line" smooth="yes"/>
			<point x="431" y="69"/>
			<point x="426" y="65"/>
			<point x="426" y="59" type="curve" smooth="yes"/>
			<point x="426" y="51" type="line" smooth="yes"/>
			<point x="426" y="22"/>
			<point x="405" y="0"/>
			<point x="376" y="0" type="curve" smooth="yes"/>
			<point x="261" y="0" type="line" smooth="yes"/>
			<point x="232" y="0"/>
			<point x="210" y="22"/>
			<point x="210" y="51" type="curve" smooth="yes"/>
			<point x="210" y="59" type="line" smooth="yes"/>
			<point x="210" y="65"/>
			<point x="206" y="69"/>
			<point x="200" y="69" type="curve" smooth="yes"/>
			<point x="190" y="69" type="line" smooth="yes"/>
			<point x="184" y="69"/>
			<point x="180" y="65"/>
			<point x="180" y="59" type="curve" smooth="yes"/>
			<point x="180" y="51" type="line" smooth="yes"/>
			<point x="180" y="22"/>
			<point x="158" y="0"/>
			<point x="129" y="0" type="curve" smooth="yes"/>
			<point x="101" y="0" type="line" smooth="yes"/>
			<point x="72" y="0"/>
			<point x="50" y="22"/>
		</contour>
	</outline>
</glyph>
<glyph name="n" format="2">
	<advance width="637"/>
	<unicode hex="006E"/>
	<outline>
		<contour>
			<point x="50" y="449" type="curve" smooth="yes"/>
			<point x="50" y="51" type="line" smooth="yes"/>
			<point x="50" y="21"/>
			<point x="72" y="0"/>
			<point x="102" y="0" type="curve" smooth="yes"/>
			<point x="130" y="0" type="line" smooth="yes"/>
			<point x="159" y="0"/>
			<point x="180" y="21"/>
			<point x="180" y="50" type="curve" smooth="yes"/>
			<point x="180" y="61" type="line" smooth="yes"/>
			<point x="180" y="68"/>
			<point x="184" y="71"/>
			<point x="190" y="71" type="curve" smooth="yes"/>
			<point x="200" y="71" type="line" smooth="yes"/>
			<point x="206" y="71"/>
			<point x="210" y="68"/>
			<point x="210" y="61" type="curve" smooth="yes"/>
			<point x="210" y="51" type="line" smooth="yes"/>
			<point x="210" y="22"/>
			<point x="232" y="0"/>
			<point x="261" y="0" type="curve" smooth="yes"/>
			<point x="536" y="0" type="line" smooth="yes"/>
			<point x="565" y="0"/>
			<point x="587" y="22"/>
			<point x="587" y="51" type="curve" smooth="yes"/>
			<point x="587" y="449" type="line" smooth="yes"/>
			<point x="587" y="478"/>
			<point x="565" y="500"/>
			<point x="536" y="500" type="curve" smooth="yes"/>
			<point x="508" y="500" type="line" smooth="yes"/>
			<point x="479" y="500"/>
			<point x="457" y="478"/>
			<point x="457" y="449" type="curve" smooth="yes"/>
			<point x="457" y="445" type="line" smooth="yes"/>
			<point x="457" y="439"/>
			<point x="453" y="436"/>
			<point x="447" y="436" type="curve" smooth="yes"/>
			<point x="437" y="436" type="line" smooth="yes"/>
			<point x="431" y="436"/>
			<point x="427" y="439"/>
			<point x="427" y="445" type="curve" smooth="yes"/>
			<point x="427" y="449" type="line" smooth="yes"/>
			<point x="427" y="478"/>
			<point x="405" y="500"/>
			<point x="376" y="500" type="curve" smooth="yes"/>
			<point x="101" y="500" type="line" smooth="yes"/>
			<point x="72" y="500"/>
			<point x="50" y="478"/>
		</contour>
	</outline>
</glyph>
<glyph name="o" format="2">
	<advance width="637"/>
	<unicode hex="006F"/>
	<outline>
		<contour>
			<point x="50" y="417" type="curve" smooth="yes"/>
			<point x="50" y="82" type="line" smooth="yes"/>
			<point x="50" y="35"/>
			<point x="85" y="0"/>
			<point x="132" y="0" type="curve" smooth="yes"/>
			<point x="504" y="0" type="line" smooth="yes"/>
			<point x="551" y="0"/>
			<point x="587" y="35"/>
			<point x="587" y="82" type="curve" smooth="yes"/>
			<point x="587" y="417" type="line" smooth="yes"/>
			<point x="587" y="464"/>
			<point x="551" y="500"/>
			<point x="504" y="500" type="curve" smooth="yes"/>
			<point x="132" y="500" type="line" smooth="yes"/>
			<point x="85" y="500"/>
			<point x="50" y="464"/>
		</contour>
		<contour>
			<point x="314" y="254" type="curve" smooth="yes"/>
			<point x="324" y="254" type="line" smooth="yes"/>
			<point x="329" y="254"/>
			<point x="334" y="249"/>
			<point x="334" y="244" type="curve" smooth="yes"/>
			<point x="334" y="229" type="line" smooth="yes"/>
			<point x="334" y="223"/>
			<point x="329" y="219"/>
			<point x="324" y="219" type="curve" smooth="yes"/>
			<point x="314" y="219" type="line" smooth="yes"/>
			<point x="308" y="219"/>
			<point x="304" y="223"/>
			<point x="304" y="229" type="curve" smooth="yes"/>
			<point x="304" y="244" type="line" smooth="yes"/>
			<point x="304" y="249"/>
			<point x="308" y="254"/>
		</contour>
	</outline>
</glyph>
<glyph name="p" format="2">
	<advance width="637"/>
	<unicode hex="0070"/>
	<outline>
		<contour>
			<point x="50" y="449" type="curve" smooth="yes"/>
			<point x="50" y="50" type="line" smooth="yes"/>
			<point x="50" y="22"/>
			<point x="72" y="0"/>
			<point x="101" y="0" type="curve" smooth="yes"/>
			<point x="129" y="0" type="line" smooth="yes"/>
			<point x="158" y="0"/>
			<point x="180" y="-1"/>
			<point x="180" y="6" type="curve"/>
			<point x="180" y="9" type="line" smooth="yes"/>
			<point x="180" y="15"/>
			<point x="184" y="19"/>
			<point x="190" y="19" type="curve" smooth="yes"/>
			<point x="505" y="19" type="line" smooth="yes"/>
			<point x="552" y="19"/>
			<point x="587" y="54"/>
			<point x="587" y="101" type="curve" smooth="yes"/>
			<point x="587" y="418" type="line" smooth="yes"/>
			<point x="587" y="465"/>
			<point x="552" y="500"/>
			<point x="505" y="500" type="curve" smooth="yes"/>
			<point x="101" y="500" type="line" smooth="yes"/>
			<point x="72" y="500"/>
			<point x="50" y="478"/>
		</contour>
		<contour>
			<point x="340" y="266" type="curve" smooth="yes"/>
			<point x="297" y="266" type="line" smooth="yes"/>
			<point x="292" y="266"/>
			<point x="287" y="270"/>
			<point x="287" y="276" type="curve" smooth="yes"/>
			<point x="287" y="286" type="line" smooth="yes"/>
			<point x="287" y="292"/>
			<point x="292" y="296"/>
			<point x="297" y="296" type="curve" smooth="yes"/>
			<point x="340" y="296" type="line" smooth="yes"/>
			<point x="346" y="296"/>
			<point x="350" y="292"/>
			<point x="350" y="286" type="curve" smooth="yes"/>
			<point x="350" y="276" type="line" smooth="yes"/>
			<point x="350" y="270"/>
			<point x="346" y="266"/>
		</contour>
	</outline>
</glyph>
<glyph name="q" format="2">
	<advance width="637"/>
	<unicode hex="0071"/>
	<outline>
		<contour>
			<point x="51" y="419" type="curve" smooth="yes"/>
			<point x="50" y="103" type="line" smooth="yes"/>
			<point x="50" y="55"/>
			<point x="85" y="21"/>
			<point x="132" y="21" type="curve" smooth="yes"/>
			<point x="170" y="21" type="line" smooth="yes"/>
			<point x="176" y="21"/>
			<point x="180" y="16"/>
			<point x="180" y="11" type="curve" smooth="yes"/>
			<point x="180" y="10" type="line" smooth="yes"/>
			<point x="180" y="4"/>
			<point x="184" y="0"/>
			<point x="190" y="0" type="curve" smooth="yes"/>
			<point x="577" y="0" type="line" smooth="yes"/>
			<point x="584" y="0"/>
			<point x="587" y="4"/>
			<point x="587" y="10" type="curve" smooth="yes"/>
			<point x="587" y="120" type="line" smooth="yes"/>
			<point x="587" y="126"/>
			<point x="584" y="130"/>
			<point x="577" y="130" type="curve" smooth="yes"/>
			<point x="576" y="130" type="line" smooth="yes"/>
			<point x="571" y="130"/>
			<point x="566" y="134"/>
			<point x="566" y="140" type="curve" smooth="yes"/>
			<point x="566" y="419" type="line" smooth="yes"/>
			<point x="566" y="465"/>
			<point x="531" y="500"/>
			<point x="484" y="500" type="curve" smooth="yes"/>
			<point x="132" y="500" type="line" smooth="yes"/>
			<point x="85" y="500"/>
			<point x="51" y="467"/>
		</contour>
		<contour>
			<point x="284" y="201" type="curve" smooth="yes"/>
			<point x="326" y="201" type="line" smooth="yes"/>
			<point x="331" y="201"/>
			<point x="336" y="197"/>
			<point x="336" y="191" type="curve" smooth="yes"/>
			<point x="336" y="181" type="line" smooth="yes"/>
			<point x="336" y="175"/>
			<point x="331" y="171"/>
			<point x="326" y="171" type="curve" smooth="yes"/>
			<point x="315" y="171" type="line" smooth="yes"/>
			<point x="309" y="171"/>
			<point x="308" y="171"/>
			<point x="305" y="171" type="curve"/>
			<point x="303" y="171" type="line"/>
			<point x="300" y="171"/>
			<point x="299" y="171"/>
			<point x="293" y="171" type="curve" smooth="yes"/>
			<point x="284" y="171" type="line" smooth="yes"/>
			<point x="278" y="171"/>
			<point x="274" y="176"/>
			<point x="274" y="181" type="curve" smooth="yes"/>
			<point x="274" y="191" type="line" smooth="yes"/>
			<point x="274" y="197"/>
			<point x="278" y="201"/>
		</contour>
	</outline>
</glyph>
<glyph name="r" format="2">
	<advance width="637"/>
	<unicode hex="0072"/>
	<outline>
		<contour>
			<point x="50" y="449" type="curve" smooth="yes"/>
			<point x="50" y="51" type="line" smooth="yes"/>
			<point x="50" y="22"/>
			<point x="72" y="0"/>
			<point x="101" y="0" type="curve" smooth="yes"/>
			<point x="129" y="0" type="line" smooth="yes"/>
			<point x="158" y="0"/>
			<point x="180" y="22"/>
			<point x="180" y="51" type="curve" smooth="yes"/>
			<point x="180" y="58" type="line" smooth="yes"/>
			<point x="180" y="64"/>
			<point x="184" y="68"/>
			<point x="190" y="68" type="curve" smooth="yes"/>
			<point x="200" y="68" type="line" smooth="yes"/>
			<point x="206" y="68"/>
			<point x="210" y="64"/>
			<point x="210" y="58" type="curve" smooth="yes"/>
			<point x="210" y="51" type="line" smooth="yes"/>
			<point x="210" y="22"/>
			<point x="232" y="0"/>
			<point x="261" y="0" type="curve" smooth="yes"/>
			<point x="536" y="0" type="line" smooth="yes"/>
			<point x="565" y="0"/>
			<point x="587" y="22"/>
			<point x="587" y="51" type="curve" smooth="yes"/>
			<point x="587" y="167" type="line" smooth="yes"/>
			<point x="587" y="196"/>
			<point x="565" y="218"/>
			<point x="536" y="218" type="curve" smooth="yes"/>
			<point x="500" y="218" type="line" smooth="yes"/>
			<point x="494" y="218"/>
			<point x="490" y="222"/>
			<point x="490" y="228" type="curve" smooth="yes"/>
			<point x="490" y="240" type="line" smooth="yes"/>
			<point x="490" y="246"/>
			<point x="494" y="250"/>
			<point x="500" y="250" type="curve" smooth="yes"/>
			<point x="505" y="250" type="line" smooth="yes"/>
			<point x="552" y="250"/>
			<point x="587" y="285"/>
			<point x="587" y="332" type="curve" smooth="yes"/>
			<point x="587" y="418" type="line" smooth="yes"/>
			<point x="587" y="465"/>
			<point x="552" y="500"/>
			<point x="505" y="500" type="curve" smooth="yes"/>
			<point x="101" y="500" type="line" smooth="yes"/>
			<point x="72" y="500"/>
			<point x="50" y="478"/>
		</contour>
		<contour>
			<point x="280" y="290" type="curve" smooth="yes"/>
			<point x="280" y="300" type="line" smooth="yes"/>
			<point x="280" y="306"/>
			<point x="284" y="310"/>
			<point x="290" y="310" type="curve" smooth="yes"/>
			<point x="347" y="310" type="line" smooth="yes"/>
			<point x="353" y="310"/>
			<point x="357" y="306"/>
			<point x="357" y="300" type="curve" smooth="yes"/>
			<point x="357" y="290" type="line" smooth="yes"/>
			<point x="357" y="284"/>
			<point x="353" y="280"/>
			<point x="347" y="280" type="curve" smooth="yes"/>
			<point x="290" y="280" type="line" smooth="yes"/>
			<point x="284" y="280"/>
			<point x="280" y="284"/>
		</contour>
	</outline>
</glyph>
<glyph name="t" format="2">
	<advance width="637"/>
	<unicode hex="0074"/>
	<outline>
		<contour>
			<point x="101" y="0" type="curve" smooth="yes"/>
			<point x="129" y="0" type="line" smooth="yes"/>
			<point x="158" y="0"/>
			<point x="180" y="22"/>
			<point x="180" y="51" type="curve" smooth="yes"/>
			<point x="180" y="156" type="line" smooth="yes"/>
			<point x="180" y="162"/>
			<point x="184" y="166"/>
			<point x="190" y="166" type="curve" smooth="yes"/>
			<point x="200" y="166" type="line" smooth="yes"/>
			<point x="206" y="166"/>
			<point x="210" y="162"/>
			<point x="210" y="156" type="curve" smooth="yes"/>
			<point x="210" y="51" type="line" smooth="yes"/>
			<point x="210" y="22"/>
			<point x="232" y="0"/>
			<point x="260" y="0" type="curve" smooth="yes"/>
			<point x="376" y="0" type="line" smooth="yes"/>
			<point x="406" y="0"/>
			<point x="428" y="22"/>
			<point x="428" y="51" type="curve" smooth="yes"/>
			<point x="428" y="156" type="line" smooth="yes"/>
			<point x="428" y="162"/>
			<point x="431" y="166"/>
			<point x="438" y="166" type="curve" smooth="yes"/>
			<point x="448" y="166" type="line" smooth="yes"/>
			<point x="453" y="166"/>
			<point x="458" y="162"/>
			<point x="458" y="156" type="curve" smooth="yes"/>
			<point x="458" y="51" type="line" smooth="yes"/>
			<point x="458" y="22"/>
			<point x="480" y="0"/>
			<point x="508" y="0" type="curve" smooth="yes"/>
			<point x="537" y="0" type="line" smooth="yes"/>
			<point x="565" y="0"/>
			<point x="587" y="22"/>
			<point x="587" y="51" type="curve" smooth="yes"/>
			<point x="587" y="450" type="line" smooth="yes"/>
			<point x="587" y="478"/>
			<point x="565" y="500"/>
			<point x="537" y="500" type="curve" smooth="yes"/>
			<point x="101" y="500" type="line" smooth="yes"/>
			<point x="72" y="500"/>
			<point x="50" y="478"/>
			<point x="50" y="450" type="curve" smooth="yes"/>
			<point x="50" y="51" type="line" smooth="yes"/>
			<point x="50" y="22"/>
			<point x="72" y="0"/>
		</contour>
	</outline>
</glyph>
<glyph name="u" format="2">
	<advance width="638"/>
	<unicode hex="0075"/>
	<outline>
		<contour>
			<point x="50" y="449" type="curve" smooth="yes"/>
			<point x="50" y="82" type="line" smooth="yes"/>
			<point x="50" y="35"/>
			<point x="85" y="0"/>
			<point x="132" y="0" type="curve" smooth="yes"/>
			<point x="506" y="0" type="line" smooth="yes"/>
			<point x="553" y="0"/>
			<point x="588" y="35"/>
			<point x="588" y="82" type="curve" smooth="yes"/>
			<point x="588" y="449" type="line" smooth="yes"/>
			<point x="588" y="478"/>
			<point x="566" y="500"/>
			<point x="537" y="500" type="curve" smooth="yes"/>
			<point x="385" y="500" type="line" smooth="yes"/>
			<point x="356" y="500"/>
			<point x="334" y="478"/>
			<point x="334" y="449" type="curve" smooth="yes"/>
			<point x="334" y="440" type="line" smooth="yes"/>
			<point x="334" y="434"/>
			<point x="330" y="430"/>
			<point x="324" y="430" type="curve" smooth="yes"/>
			<point x="314" y="430" type="line" smooth="yes"/>
			<point x="308" y="430"/>
			<point x="304" y="434"/>
			<point x="304" y="440" type="curve" smooth="yes"/>
			<point x="304" y="449" type="line" smooth="yes"/>
			<point x="304" y="478"/>
			<point x="282" y="500"/>
			<point x="253" y="500" type="curve" smooth="yes"/>
			<point x="101" y="500" type="line" smooth="yes"/>
			<point x="72" y="500"/>
			<point x="50" y="478"/>
		</contour>
	</outline>
</glyph>
<glyph name="v" format="2">
	<advance width="636"/>
	<unicode hex="0076"/>
	<outline>
		<contour>
			<point x="50" y="448" type="curve" smooth="yes"/>
			<point x="50" y="77" type="line" smooth="yes"/>
			<point x="50" y="49"/>
			<point x="72" y="27"/>
			<point x="101" y="27" type="curve" smooth="yes"/>
			<point x="172" y="27" type="line" smooth="yes"/>
			<point x="178" y="27"/>
			<point x="182" y="22"/>
			<point x="182" y="17" type="curve" smooth="yes"/>
			<point x="182" y="15" type="line" smooth="yes"/>
			<point x="182" y="-2"/>
			<point x="204" y="0"/>
			<point x="233" y="0" type="curve" smooth="yes"/>
			<point x="406" y="0" type="line" smooth="yes"/>
			<point x="435" y="0"/>
			<point x="458" y="-2"/>
			<point x="458" y="15" type="curve" smooth="yes"/>
			<point x="458" y="17" type="line" smooth="yes"/>
			<point x="458" y="22"/>
			<point x="461" y="27"/>
			<point x="468" y="27" type="curve" smooth="yes"/>
			<point x="536" y="27" type="line" smooth="yes"/>
			<point x="565" y="27"/>
			<point x="586" y="49"/>
			<point x="586" y="77" type="curve" smooth="yes"/>
			<point x="586" y="448" type="line" smooth="yes"/>
			<point x="586" y="478"/>
			<point x="565" y="500"/>
			<point x="536" y="500" type="curve" smooth="yes"/>
			<point x="383" y="500" type="line" smooth="yes"/>
			<point x="355" y="500"/>
			<point x="332" y="478"/>
			<point x="332" y="448" type="curve" smooth="yes"/>
			<point x="332" y="442" type="line" smooth="yes"/>
			<point x="332" y="436"/>
			<point x="328" y="432"/>
			<point x="322" y="432" type="curve" smooth="yes"/>
			<point x="312" y="432" type="line" smooth="yes"/>
			<point x="307" y="432"/>
			<point x="302" y="436"/>
			<point x="302" y="442" type="curve" smooth="yes"/>
			<point x="302" y="448" type="line" smooth="yes"/>
			<point x="302" y="478"/>
			<point x="281" y="500"/>
			<point x="252" y="500" type="curve" smooth="yes"/>
			<point x="101" y="500" type="line" smooth="yes"/>
			<point x="72" y="500"/>
			<point x="50" y="478"/>
		</contour>
	</outline>
</glyph>
<glyph name="w" format="2">
	<advance width="638"/>
	<unicode hex="0077"/>
	<outline>
		<contour>
			<point x="50" y="449" type="curve" smooth="yes"/>
			<point x="50" y="51" type="line" smooth="yes"/>
			<point x="50" y="22"/>
			<point x="72" y="0"/>
			<point x="101" y="0" type="curve" smooth="yes"/>
			<point x="250" y="0" type="line" smooth="yes"/>
			<point x="278" y="0"/>
			<point x="300" y="22"/>
			<point x="300" y="51" type="curve" smooth="yes"/>
			<point x="300" y="61" type="line" smooth="yes"/>
			<point x="300" y="67"/>
			<point x="305" y="71"/>
			<point x="310" y="71" type="curve" smooth="yes"/>
			<point x="320" y="71" type="line" smooth="yes"/>
			<point x="326" y="71"/>
			<point x="330" y="67"/>
			<point x="330" y="61" type="curve" smooth="yes"/>
			<point x="330" y="51" type="line" smooth="yes"/>
			<point x="330" y="22"/>
			<point x="353" y="0"/>
			<point x="381" y="0" type="curve" smooth="yes"/>
			<point x="536" y="0" type="line" smooth="yes"/>
			<point x="566" y="0"/>
			<point x="588" y="22"/>
			<point x="588" y="51" type="curve" smooth="yes"/>
			<point x="588" y="449" type="line" smooth="yes"/>
			<point x="588" y="478"/>
			<point x="566" y="500"/>
			<point x="536" y="500" type="curve" smooth="yes"/>
			<point x="508" y="500" type="line" smooth="yes"/>
			<point x="480" y="500"/>
			<point x="458" y="478"/>
			<point x="458" y="449" type="curve" smooth="yes"/>
			<point x="458" y="441" type="line" smooth="yes"/>
			<point x="458" y="436"/>
			<point x="453" y="431"/>
			<point x="448" y="431" type="curve" smooth="yes"/>
			<point x="438" y="431" type="line" smooth="yes"/>
			<point x="431" y="431"/>
			<point x="428" y="436"/>
			<point x="428" y="441" type="curve" smooth="yes"/>
			<point x="428" y="449" type="line" smooth="yes"/>
			<point x="428" y="478"/>
			<point x="405" y="500"/>
			<point x="376" y="500" type="curve" smooth="yes"/>
			<point x="261" y="500" type="line" smooth="yes"/>
			<point x="232" y="500"/>
			<point x="210" y="478"/>
			<point x="210" y="449" type="curve" smooth="yes"/>
			<point x="210" y="441" type="line" smooth="yes"/>
			<point x="210" y="436"/>
			<point x="206" y="431"/>
			<point x="200" y="431" type="curve" smooth="yes"/>
			<point x="190" y="431" type="line" smooth="yes"/>
			<point x="184" y="431"/>
			<point x="180" y="436"/>
			<point x="180" y="441" type="curve" smooth="yes"/>
			<point x="180" y="449" type="line" smooth="yes"/>
			<point x="180" y="478"/>
			<point x="158" y="500"/>
			<point x="129" y="500" type="curve" smooth="yes"/>
			<point x="101" y="500" type="line" smooth="yes"/>
			<point x="72" y="500"/>
			<point x="50" y="478"/>
		</contour>
	</outline>
</glyph>
<glyph name="x" format="2">
	<advance width="637"/>
	<unicode hex="0078"/>
	<outline>
		<contour>
			<point x="50" y="449" type="curve" smooth="yes"/>
			<point x="50" y="316" type="line" smooth="yes"/>
			<point x="50" y="287"/>
			<point x="72" y="265"/>
			<point x="101" y="265" type="curve" smooth="yes"/>
			<point x="104" y="265" type="line" smooth="yes"/>
			<point x="110" y="265"/>
			<point x="114" y="261"/>
			<point x="114" y="255" type="curve" smooth="yes"/>
			<point x="114" y="245" type="line" smooth="yes"/>
			<point x="114" y="239"/>
			<point x="110" y="235"/>
			<point x="104" y="235" type="curve" smooth="yes"/>
			<point x="101" y="235" type="line" smooth="yes"/>
			<point x="72" y="235"/>
			<point x="50" y="213"/>
			<point x="50" y="184" type="curve" smooth="yes"/>
			<point x="50" y="51" type="line" smooth="yes"/>
			<point x="50" y="22"/>
			<point x="72" y="0"/>
			<point x="101" y="0" type="curve" smooth="yes"/>
			<point x="252" y="0" type="line" smooth="yes"/>
			<point x="281" y="0"/>
			<point x="303" y="22"/>
			<point x="303" y="51" type="curve" smooth="yes"/>
			<point x="303" y="58" type="line" smooth="yes"/>
			<point x="303" y="64"/>
			<point x="307" y="68"/>
			<point x="313" y="68" type="curve" smooth="yes"/>
			<point x="323" y="68" type="line" smooth="yes"/>
			<point x="329" y="68"/>
			<point x="333" y="64"/>
			<point x="333" y="58" type="curve" smooth="yes"/>
			<point x="333" y="51" type="line" smooth="yes"/>
			<point x="333" y="22"/>
			<point x="355" y="0"/>
			<point x="384" y="0" type="curve" smooth="yes"/>
			<point x="536" y="0" type="line" smooth="yes"/>
			<point x="565" y="0"/>
			<point x="587" y="22"/>
			<point x="587" y="51" type="curve" smooth="yes"/>
			<point x="587" y="184" type="line" smooth="yes"/>
			<point x="587" y="213"/>
			<point x="565" y="235"/>
			<point x="536" y="235" type="curve" smooth="yes"/>
			<point x="531" y="235" type="line" smooth="yes"/>
			<point x="526" y="235"/>
			<point x="521" y="239"/>
			<point x="521" y="245" type="curve" smooth="yes"/>
			<point x="521" y="255" type="line" smooth="yes"/>
			<point x="521" y="261"/>
			<point x="526" y="265"/>
			<point x="531" y="265" type="curve" smooth="yes"/>
			<point x="536" y="265" type="line" smooth="yes"/>
			<point x="565" y="265"/>
			<point x="587" y="287"/>
			<point x="587" y="316" type="curve" smooth="yes"/>
			<point x="587" y="449" type="line" smooth="yes"/>
			<point x="587" y="478"/>
			<point x="565" y="500"/>
			<point x="536" y="500" type="curve" smooth="yes"/>
			<point x="384" y="500" type="line" smooth="yes"/>
			<point x="355" y="500"/>
			<point x="333" y="478"/>
			<point x="333" y="449" type="curve" smooth="yes"/>
			<point x="333" y="442" type="line" smooth="yes"/>
			<point x="333" y="436"/>
			<point x="329" y="432"/>
			<point x="323" y="432" type="curve" smooth="yes"/>
			<point x="313" y="432" type="line" smooth="yes"/>
			<point x="307" y="432"/>
			<point x="303" y="436"/>
			<point x="303" y="442" type="curve" smooth="yes"/>
			<point x="303" y="449" type="line" smooth="yes"/>
			<point x="303" y="478"/>
			<point x="281" y="500"/>
			<point x="252" y="500" type="curve" smooth="yes"/>
			<point x="101" y="500" type="line" smooth="yes"/>
			<point x="72" y="500"/>
			<point x="50" y="478"/>
		</contour>
	</outline>
</glyph>
<glyph name="y" format="2">
	<advance width="638"/>
	<unicode hex="0079"/>
	<outline>
		<contour>
			<point x="50" y="449" type="curve" smooth="yes"/>
			<point x="50" y="301" type="line" smooth="yes"/>
			<point x="50" y="272"/>
			<point x="72" y="250"/>
			<point x="101" y="250" type="curve" smooth="yes"/>
			<point x="106" y="250" type="line" smooth="yes"/>
			<point x="111" y="250"/>
			<point x="116" y="246"/>
			<point x="116" y="240" type="curve" smooth="yes"/>
			<point x="116" y="51" type="line" smooth="yes"/>
			<point x="116" y="22"/>
			<point x="138" y="0"/>
			<point x="166" y="0" type="curve" smooth="yes"/>
			<point x="473" y="0" type="line" smooth="yes"/>
			<point x="502" y="0"/>
			<point x="524" y="22"/>
			<point x="524" y="51" type="curve" smooth="yes"/>
			<point x="524" y="240" type="line" smooth="yes"/>
			<point x="524" y="246"/>
			<point x="528" y="250"/>
			<point x="534" y="250" type="curve" smooth="yes"/>
			<point x="537" y="250" type="line" smooth="yes"/>
			<point x="566" y="250"/>
			<point x="588" y="272"/>
			<point x="588" y="301" type="curve" smooth="yes"/>
			<point x="588" y="449" type="line" smooth="yes"/>
			<point x="588" y="478"/>
			<point x="566" y="500"/>
			<point x="537" y="500" type="curve" smooth="yes"/>
			<point x="386" y="500" type="line" smooth="yes"/>
			<point x="356" y="500"/>
			<point x="334" y="478"/>
			<point x="334" y="449" type="curve" smooth="yes"/>
			<point x="334" y="444" type="line" smooth="yes"/>
			<point x="334" y="439"/>
			<point x="331" y="434"/>
			<point x="324" y="434" type="curve" smooth="yes"/>
			<point x="314" y="434" type="line" smooth="yes"/>
			<point x="309" y="434"/>
			<point x="304" y="439"/>
			<point x="304" y="444" type="curve" smooth="yes"/>
			<point x="304" y="449" type="line" smooth="yes"/>
			<point x="304" y="478"/>
			<point x="282" y="500"/>
			<point x="254" y="500" type="curve" smooth="yes"/>
			<point x="101" y="500" type="line" smooth="yes"/>
			<point x="72" y="500"/>
			<point x="50" y="478"/>
		</contour>
	</outline>
</glyph>
<glyph name="z" format="2">
	<advance width="637"/>
	<unicode hex="007A"/>
	<outline>
		<contour>
			<point x="101" y="500" type="curve" smooth="yes"/>
			<point x="536" y="500" type="line" smooth="yes"/>
			<point x="565" y="500"/>
			<point x="587" y="479"/>
			<point x="587" y="449" type="curve" smooth="yes"/>
			<point x="587" y="211" type="line" smooth="yes"/>
			<point x="587" y="182"/>
			<point x="565" y="160"/>
			<point x="536" y="160" type="curve" smooth="yes"/>
			<point x="525" y="160" type="line" smooth="yes"/>
			<point x="519" y="160"/>
			<point x="515" y="156"/>
			<point x="515" y="150" type="curve" smooth="yes"/>
			<point x="515" y="140" type="line" smooth="yes"/>
			<point x="515" y="134"/>
			<point x="519" y="130"/>
			<point x="525" y="130" type="curve" smooth="yes"/>
			<point x="536" y="130" type="line" smooth="yes"/>
			<point x="565" y="130"/>
			<point x="587" y="108"/>
			<point x="587" y="79" type="curve" smooth="yes"/>
			<point x="587" y="51" type="line" smooth="yes"/>
			<point x="587" y="22"/>
			<point x="565" y="0"/>
			<point x="536" y="0" type="curve" smooth="yes"/>
			<point x="101" y="0" type="line" smooth="yes"/>
			<point x="72" y="0"/>
			<point x="50" y="22"/>
			<point x="50" y="51" type="curve" smooth="yes"/>
			<point x="50" y="289" type="line" smooth="yes"/>
			<point x="50" y="318"/>
			<point x="72" y="340"/>
			<point x="101" y="340" type="curve" smooth="yes"/>
			<point x="111" y="340" type="line" smooth="yes"/>
			<point x="116" y="340"/>
			<point x="121" y="344"/>
			<point x="121" y="350" type="curve" smooth="yes"/>
			<point x="121" y="360" type="line" smooth="yes"/>
			<point x="121" y="366"/>
			<point x="116" y="370"/>
			<point x="111" y="370" type="curve" smooth="yes"/>
			<point x="101" y="370" type="line" smooth="yes"/>
			<point x="72" y="370"/>
			<point x="50" y="392"/>
			<point x="50" y="421" type="curve" smooth="yes"/>
			<point x="50" y="449" type="line" smooth="yes"/>
			<point x="50" y="479"/>
			<point x="72" y="500"/>
		</contour>
	</outline>
</glyph>
<glyph name="quoteright" format="2">
	<advance width="190"/>
	<unicode hex="2019"/>
	<outline>
		<contour>
			<point x="50" y="685" type="curve" smooth="yes"/>
			<point x="50" y="475" type="line" smooth="yes"/>
			<point x="50" y="467"/>
			<point x="57" y="460"/>
			<point x="65" y="460" type="curve" smooth="yes"/>
			<point x="125" y="460" type="line" smooth="yes"/>
			<point x="133" y="460"/>
			<point x="140" y="467"/>
			<point x="140" y="475" type="curve" smooth="yes"/>
			<point x="140" y="685" type="line" smooth="yes"/>
			<point x="140" y="693"/>
			<point x="133" y="700"/>
			<point x="125" y="700" type="curve" smooth="yes"/>
			<point x="65" y="700" type="line" smooth="yes"/>
			<point x="57" y="700"/>
			<point x="50" y="693"/>
		</contour>
	</outline>
</glyph>
